<svg width="60" height="20" viewBox="0 0 60 20" fill="none" xmlns="http://www.w3.org/2000/svg">
<path d="M39.1879 4.84769C34.7975 4.84769 32.1006 8.17968 32.1006 12.1721C32.1006 15.6227 34.0778 19.4458 39.1879 19.4458C43.8282 19.4458 45.1449 16.4694 45.6826 14.8056H43.2651C42.7105 14.8056 42.304 15.0257 41.9272 15.4957C41.7663 15.6777 40.9577 16.6007 39.3277 16.6007C36.0295 16.6007 35.983 13.9842 35.9195 13.0866H45.9324C46.216 9.06878 44.0907 4.84346 39.1964 4.84346M35.911 10.6734C35.911 10.394 36.1312 7.7182 39.0821 7.7182C41.0381 7.7182 41.7452 8.82322 42.1135 10.6734H35.9152H35.911Z" fill="#6A2382"/>
<path d="M48.2864 0V15.6142C48.316 18.2434 48.7987 19.1579 52.0756 19.1579V3.07797C52.046 0.491119 51.5464 0 48.2864 0Z" fill="#6A2382"/>
<path d="M59.4255 3.0822C59.4001 0.495354 58.9005 0.00423431 55.6405 0.00423431V15.6185C55.6701 18.2476 56.157 19.1621 59.4297 19.1621V3.0822H59.4255Z" fill="#6A2382"/>
<path d="M26.7279 14.6658C26.2537 15.9656 25.39 16.6007 23.9124 16.6007C21.6177 16.6007 20.7456 14.4161 20.7456 12.1721C20.7456 10.0426 21.6431 7.7182 23.9929 7.7182C25.462 7.7182 26.2368 8.37444 26.5713 9.22543C26.7533 9.69115 27.0243 10.1103 27.8626 10.1103H30.5426C30.3393 6.52427 27.2571 4.84769 24.0183 4.84769C19.2426 4.84769 16.9394 8.31093 16.9394 12.3373C16.9394 16.8463 20.0682 19.4458 23.9378 19.4458C27.3206 19.4458 30.0895 17.748 30.623 13.7852H27.9303C27.9303 13.7852 27.0624 13.7556 26.7279 14.6658Z" fill="#6A2382"/>
<path d="M16.9436 0H14.8945C12.9088 0 11.6218 0.0762081 10.0468 1.74432C8.45911 3.4082 4.19569 7.94682 4.19569 7.94682V3.72997C4.19145 0.948369 3.71303 0 0 0V19.1664H4.19569V12.9977L6.60895 10.5506C6.60895 10.5506 8.94176 14.0096 10.504 16.3721C12.0748 18.7261 12.8284 19.1664 15.6354 19.1664H17.6676L9.45829 7.57002L16.9436 0.00423348V0Z" fill="#6A2382"/>
</svg>
