<svg width="208" height="180" viewBox="0 0 208 180" fill="none" xmlns="http://www.w3.org/2000/svg">
<path d="M43.5473 126.025C42.8958 126.025 42.2443 125.788 41.7113 125.255C40.7637 124.248 40.7637 122.649 41.7705 121.701C42.422 121.05 58.4127 106.125 81.0366 111.041C82.3988 111.337 83.2872 112.699 82.9318 114.061C82.5765 115.424 81.2735 116.312 79.9114 115.957C59.9526 111.574 45.3832 125.196 45.2648 125.373C44.791 125.788 44.1395 126.025 43.5473 126.025Z" fill="url(#paint0_linear_6597_5321)"/>
<path d="M70.4951 152.972C69.8436 152.972 69.2514 152.735 68.7776 152.262C67.7707 151.314 67.7115 149.715 68.7183 148.708C68.8368 148.59 82.4585 133.902 78.1351 114.002C77.839 112.64 78.7274 111.278 80.0303 110.982C81.3925 110.686 82.7547 111.574 83.0508 112.877C87.9665 135.442 73.0418 151.432 72.3903 152.143C71.798 152.735 71.1466 152.972 70.4951 152.972Z" fill="url(#paint1_linear_6597_5321)"/>
<path d="M127.469 68.9917C126.285 68.9917 125.278 68.1625 124.982 67.0372C120.066 44.4725 134.991 28.4818 135.642 27.7711C136.59 26.7643 138.189 26.7051 139.196 27.7119C140.203 28.6595 140.262 30.2585 139.255 31.2654C139.137 31.3838 125.515 46.0716 129.898 65.9712C130.194 67.3334 129.305 68.6955 128.002 68.9917C127.825 68.9917 127.647 68.9917 127.469 68.9917Z" fill="url(#paint2_linear_6597_5321)"/>
<path d="M136.115 69.9385C133.213 69.9385 130.133 69.6424 126.935 68.9317C125.573 68.6356 124.684 67.2734 125.039 65.9112C125.336 64.549 126.698 63.6607 128.06 64.016C148.078 68.3987 162.588 54.7769 162.766 54.6585C163.773 53.7109 165.372 53.7109 166.319 54.7177C167.267 55.7245 167.267 57.3236 166.26 58.2712C165.609 58.8635 153.764 69.9385 136.115 69.9385Z" fill="url(#paint3_linear_6597_5321)"/>
<path d="M80.503 116.016C79.3185 116.016 78.3116 115.187 78.0155 114.062C76.8902 108.85 76.7126 103.52 77.5417 98.2488C80.3845 80.3628 94.3616 66.445 112.188 63.6022C117.459 62.773 122.79 62.8915 128.001 64.076C129.364 64.3721 130.252 65.7343 129.897 67.0964C129.541 68.4586 128.238 69.347 126.876 68.9916C122.257 67.9848 117.578 67.8664 112.958 68.5771C97.2636 71.1237 85.0041 83.3241 82.5166 99.0187C81.7467 103.638 81.9244 108.317 82.9312 112.937C83.2273 114.299 82.3389 115.661 81.036 115.957C80.8583 116.016 80.6806 116.016 80.503 116.016Z" fill="url(#paint4_linear_6597_5321)"/>
<path d="M89.0313 116.964C86.0108 116.964 82.9311 116.609 79.9698 115.957C78.6077 115.661 77.7193 114.299 78.0746 112.937C78.43 111.574 79.7329 110.686 81.0951 111.041C85.7147 112.048 90.3934 112.167 95.013 111.456C110.708 108.909 122.967 96.7089 125.455 81.0143C126.225 76.3948 126.047 71.716 125.04 67.0965C124.744 65.7343 125.632 64.3721 126.935 64.076C128.297 63.7799 129.66 64.6682 129.956 65.9712C131.081 71.183 131.259 76.5132 130.429 81.7842C127.587 99.6702 113.61 113.588 95.7829 116.431C93.5324 116.786 91.2818 116.964 89.0313 116.964Z" fill="url(#paint5_linear_6597_5321)"/>
<path d="M110.175 98.663C109.523 98.663 108.872 98.4261 108.398 97.9523L96.0793 85.6335C95.0725 84.6267 95.0725 83.0276 96.0793 82.08C97.0862 81.0732 98.6852 81.0732 99.6328 82.08L111.952 94.3988C112.958 95.4056 112.958 97.0047 111.952 97.9523C111.419 98.4261 110.767 98.663 110.175 98.663Z" fill="url(#paint6_linear_6597_5321)"/>
<path d="M96.7886 104.941C96.1371 104.941 95.4856 104.705 95.0118 104.231L89.8 99.0189C88.7932 98.0121 88.7932 96.413 89.8 95.4654C90.8069 94.4586 92.4059 94.4586 93.3535 95.4654L98.5653 100.677C99.5722 101.684 99.5722 103.283 98.5653 104.231C98.0915 104.645 97.4401 104.941 96.7886 104.941Z" fill="url(#paint7_linear_6597_5321)"/>
<path d="M71.3804 130.348C70.7289 130.348 70.0774 130.111 69.6036 129.638L64.3918 124.426C63.385 123.419 63.385 121.82 64.3918 120.872C65.3987 119.865 66.9977 119.865 67.9453 120.872L73.1571 126.084C74.164 127.091 74.164 128.69 73.1571 129.638C72.6241 130.111 71.9726 130.348 71.3804 130.348Z" fill="url(#paint8_linear_6597_5321)"/>
<path d="M116.392 85.3373C115.741 85.3373 115.089 85.1004 114.615 84.6266L109.404 79.4148C108.397 78.408 108.397 76.8089 109.404 75.8613C110.41 74.8545 112.009 74.8545 112.957 75.8613L118.169 81.0731C119.176 82.0799 119.176 83.679 118.169 84.6266C117.695 85.1004 117.044 85.3373 116.392 85.3373Z" fill="url(#paint9_linear_6597_5321)"/>
<path d="M116.392 85.3373C115.741 85.3373 115.089 85.1004 114.615 84.6266L109.404 79.4148C108.397 78.408 108.397 76.8089 109.404 75.8613C110.41 74.8545 112.009 74.8545 112.957 75.8613L118.169 81.0731C119.176 82.0799 119.176 83.679 118.169 84.6266C117.695 85.1004 117.044 85.3373 116.392 85.3373Z" fill="url(#paint10_linear_6597_5321)"/>
<path d="M141.859 59.8709C141.207 59.8709 140.556 59.634 140.082 59.1602L134.87 53.9484C133.864 52.9416 133.864 51.3425 134.87 50.3949C135.877 49.3881 137.476 49.3881 138.424 50.3949L143.636 55.6067C144.642 56.6135 144.642 58.2126 143.636 59.1602C143.162 59.634 142.51 59.8709 141.859 59.8709Z" fill="url(#paint11_linear_6597_5321)"/>
<defs>
<linearGradient id="paint0_linear_6597_5321" x1="38.2162" y1="124.756" x2="49.5072" y2="99.3595" gradientUnits="userSpaceOnUse">
<stop stop-color="#E36333"/>
<stop offset="0.583849" stop-color="#B73B62"/>
<stop offset="1" stop-color="#812775"/>
</linearGradient>
<linearGradient id="paint1_linear_6597_5321" x1="66.9255" y1="149.633" x2="90.5492" y2="141.918" gradientUnits="userSpaceOnUse">
<stop stop-color="#E36333"/>
<stop offset="0.583849" stop-color="#B73B62"/>
<stop offset="1" stop-color="#812775"/>
</linearGradient>
<linearGradient id="paint2_linear_6597_5321" x1="122.927" y1="65.6554" x2="146.476" y2="57.9861" gradientUnits="userSpaceOnUse">
<stop stop-color="#E36333"/>
<stop offset="0.583849" stop-color="#B73B62"/>
<stop offset="1" stop-color="#812775"/>
</linearGradient>
<linearGradient id="paint3_linear_6597_5321" x1="122.165" y1="68.6691" x2="133.455" y2="43.2523" gradientUnits="userSpaceOnUse">
<stop stop-color="#E36333"/>
<stop offset="0.583849" stop-color="#B73B62"/>
<stop offset="1" stop-color="#812775"/>
</linearGradient>
<linearGradient id="paint4_linear_6597_5321" x1="73.5062" y1="111.811" x2="123.304" y2="69.2077" gradientUnits="userSpaceOnUse">
<stop stop-color="#E36333"/>
<stop offset="0.583849" stop-color="#B73B62"/>
<stop offset="1" stop-color="#812775"/>
</linearGradient>
<linearGradient id="paint5_linear_6597_5321" x1="74.4769" y1="112.759" x2="124.272" y2="70.1552" gradientUnits="userSpaceOnUse">
<stop stop-color="#E36333"/>
<stop offset="0.583849" stop-color="#B73B62"/>
<stop offset="1" stop-color="#812775"/>
</linearGradient>
<linearGradient id="paint6_linear_6597_5321" x1="94.1689" y1="97.286" x2="110.482" y2="83.2946" gradientUnits="userSpaceOnUse">
<stop stop-color="#E36333"/>
<stop offset="0.583849" stop-color="#B73B62"/>
<stop offset="1" stop-color="#812775"/>
</linearGradient>
<linearGradient id="paint7_linear_6597_5321" x1="88.362" y1="104.129" x2="97.9906" y2="95.8558" gradientUnits="userSpaceOnUse">
<stop stop-color="#E36333"/>
<stop offset="0.583849" stop-color="#B73B62"/>
<stop offset="1" stop-color="#812775"/>
</linearGradient>
<linearGradient id="paint8_linear_6597_5321" x1="62.9538" y1="129.536" x2="72.5824" y2="121.263" gradientUnits="userSpaceOnUse">
<stop stop-color="#E36333"/>
<stop offset="0.583849" stop-color="#B73B62"/>
<stop offset="1" stop-color="#812775"/>
</linearGradient>
<linearGradient id="paint9_linear_6597_5321" x1="107.966" y1="84.5247" x2="117.594" y2="76.2516" gradientUnits="userSpaceOnUse">
<stop stop-color="#E36333"/>
<stop offset="0.583849" stop-color="#B73B62"/>
<stop offset="1" stop-color="#812775"/>
</linearGradient>
<linearGradient id="paint10_linear_6597_5321" x1="107.966" y1="84.5247" x2="117.594" y2="76.2516" gradientUnits="userSpaceOnUse">
<stop stop-color="#E36333"/>
<stop offset="0.583849" stop-color="#B73B62"/>
<stop offset="1" stop-color="#812775"/>
</linearGradient>
<linearGradient id="paint11_linear_6597_5321" x1="133.432" y1="59.0583" x2="143.061" y2="50.7852" gradientUnits="userSpaceOnUse">
<stop stop-color="#E36333"/>
<stop offset="0.583849" stop-color="#B73B62"/>
<stop offset="1" stop-color="#812775"/>
</linearGradient>
</defs>
</svg>
