<svg width="208" height="180" viewBox="0 0 208 180" fill="none" xmlns="http://www.w3.org/2000/svg">
<path d="M98.8205 131.407C95.0894 131.407 91.299 130.992 87.5678 130.163C74.0645 127.202 62.5749 119.147 55.1717 107.48C47.7686 95.8128 45.2812 82.0133 48.3017 68.5101C51.2629 55.0068 59.3175 43.5171 70.9848 36.114C82.6521 28.7109 96.4515 26.2234 109.955 29.2439C137.791 35.4033 155.38 63.0614 149.221 90.8971C146.26 104.4 138.205 115.89 126.538 123.293C118.069 128.623 108.533 131.407 98.8205 131.407ZM98.7021 32.1459C76.9073 32.1459 57.1854 47.3075 52.2697 69.4576C49.5454 81.8357 51.7959 94.569 58.6068 105.289C65.4769 115.949 76.0189 123.352 88.4562 126.077C100.834 128.801 113.568 126.55 124.287 119.74C135.007 112.929 142.41 102.327 145.134 89.9495C150.82 64.3643 134.592 38.9568 109.007 33.2712C105.513 32.5605 102.078 32.1459 98.7021 32.1459Z" fill="url(#paint0_linear_6597_5307)"/>
<path d="M98.8215 142.719C94.2611 142.719 89.6416 142.245 85.0813 141.238C81.4686 140.468 77.9743 139.343 74.5985 137.922C73.2955 137.388 72.7033 135.908 73.2363 134.605C73.7693 133.302 75.2499 132.71 76.5529 133.243C79.6326 134.546 82.8899 135.553 86.2065 136.263C101.309 139.58 116.826 136.855 129.915 128.564C142.944 120.213 152.005 107.361 155.322 92.1998C159.823 71.708 152.953 50.3278 137.258 36.41C136.192 35.4624 136.133 33.8633 137.081 32.8565C138.028 31.7904 139.627 31.7312 140.634 32.6788C157.632 47.8404 165.153 71.1158 160.238 93.3251C156.625 109.73 146.794 123.767 132.58 132.828C122.334 139.343 110.666 142.719 98.8215 142.719Z" fill="url(#paint1_linear_6597_5307)"/>
<path d="M92.9575 130.756C91.1215 130.756 89.3448 130.578 87.5088 130.163C78.0328 128.091 70.3928 120.747 65.9509 109.553C61.6275 98.6558 60.8576 85.2709 63.8188 71.9453C69.9782 44.1096 90.6477 24.9207 109.896 29.1849C129.144 33.4491 139.804 59.5673 133.645 87.3438C128.019 112.633 110.488 130.756 92.9575 130.756ZM104.329 32.7976C88.7525 32.7976 72.9987 49.6175 67.8461 72.8929C65.0626 85.4486 65.7733 97.8858 69.8006 108.073C73.7094 117.963 80.3426 124.359 88.3972 126.136C105.395 129.927 123.814 112.159 129.499 86.5739C135.185 60.9887 125.946 37.1211 108.948 33.3307C107.408 32.9753 105.869 32.7976 104.329 32.7976Z" fill="url(#paint2_linear_6597_5307)"/>
<path d="M89.1083 130.341C88.5753 130.341 88.0423 130.281 87.5685 130.163C82.4751 129.038 79.3362 122.701 78.3886 111.744C77.5594 101.735 78.6847 89.0015 81.5867 75.9128C86.9762 51.4529 98.762 26.8153 109.896 29.2436C121.031 31.731 121.267 59.0337 115.878 83.4936C110.666 106.828 99.7688 130.341 89.1083 130.341ZM108.356 33.2116C105.454 33.2116 101.309 37.2982 97.3998 44.109C92.6026 52.4597 88.3976 64.0678 85.614 76.8012C82.7712 89.5346 81.7052 101.853 82.5343 111.389C83.245 119.798 85.4956 125.425 88.4568 126.076C91.4181 126.728 95.8599 122.582 100.006 115.238C104.803 106.887 108.949 95.2794 111.791 82.546C114.634 69.8126 115.7 57.4939 114.871 47.9586C114.16 39.5487 111.91 33.9223 108.949 33.2709C108.771 33.2709 108.534 33.2116 108.356 33.2116Z" fill="url(#paint3_linear_6597_5307)"/>
<path d="M147.148 92.4957C146.971 92.4957 146.852 92.4957 146.675 92.4365L49.8419 70.997C48.7166 70.7601 48.0059 69.6349 48.2428 68.5096C48.4797 67.3843 49.605 66.6736 50.7302 66.9105L147.563 88.4092C148.688 88.6461 149.399 89.7713 149.162 90.8966C148.925 91.8442 148.096 92.4957 147.148 92.4957Z" fill="url(#paint4_linear_6597_5307)"/>
<path d="M137.849 112.277C137.672 112.277 137.553 112.277 137.376 112.218L49.9005 92.8514C48.7752 92.6145 48.0645 91.4892 48.3014 90.364C48.5383 89.2387 49.6636 88.528 50.7888 88.7649L138.264 108.131C139.389 108.368 140.1 109.494 139.863 110.619C139.626 111.626 138.797 112.277 137.849 112.277Z" fill="url(#paint5_linear_6597_5307)"/>
<path d="M147.03 70.642C146.853 70.642 146.734 70.642 146.557 70.5828L59.1407 51.2162C58.0154 50.9793 57.3047 49.854 57.5416 48.7288C57.7785 47.6035 58.9038 46.8928 60.0291 47.1297L147.504 66.4962C148.63 66.7331 149.34 67.8584 149.103 68.9837C148.866 69.9905 147.978 70.642 147.03 70.642Z" fill="url(#paint6_linear_6597_5307)"/>
<path d="M98.7029 152.669C97.2815 152.669 96.1562 151.544 96.1562 150.122V140.172C96.1562 138.751 97.2815 137.626 98.7029 137.626C100.124 137.626 101.25 138.751 101.25 140.172V150.122C101.19 151.544 100.065 152.669 98.7029 152.669Z" fill="url(#paint7_linear_6597_5307)"/>
<path d="M111.968 152.668H85.4353C84.0139 152.668 82.8887 151.543 82.8887 150.122C82.8887 148.7 84.0139 147.575 85.4353 147.575H112.027C113.449 147.575 114.574 148.7 114.574 150.122C114.574 151.543 113.39 152.668 111.968 152.668Z" fill="url(#paint8_linear_6597_5307)"/>
<defs>
<linearGradient id="paint0_linear_6597_5307" x1="40.1744" y1="123.193" x2="137.436" y2="39.9973" gradientUnits="userSpaceOnUse">
<stop stop-color="#E36333"/>
<stop offset="0.583849" stop-color="#B73B62"/>
<stop offset="1" stop-color="#812775"/>
</linearGradient>
<linearGradient id="paint1_linear_6597_5307" x1="67.1473" y1="133.926" x2="165.434" y2="66.5741" gradientUnits="userSpaceOnUse">
<stop stop-color="#E36333"/>
<stop offset="0.583849" stop-color="#B73B62"/>
<stop offset="1" stop-color="#812775"/>
</linearGradient>
<linearGradient id="paint2_linear_6597_5307" x1="57.1702" y1="122.642" x2="143.915" y2="69.3636" gradientUnits="userSpaceOnUse">
<stop stop-color="#E36333"/>
<stop offset="0.583849" stop-color="#B73B62"/>
<stop offset="1" stop-color="#812775"/>
</linearGradient>
<linearGradient id="paint3_linear_6597_5307" x1="75.3858" y1="122.298" x2="135.224" y2="101.478" gradientUnits="userSpaceOnUse">
<stop stop-color="#E36333"/>
<stop offset="0.583849" stop-color="#B73B62"/>
<stop offset="1" stop-color="#812775"/>
</linearGradient>
<linearGradient id="paint4_linear_6597_5307" x1="41.4839" y1="90.46" x2="54.7874" y2="45.6068" gradientUnits="userSpaceOnUse">
<stop stop-color="#E36333"/>
<stop offset="0.583849" stop-color="#B73B62"/>
<stop offset="1" stop-color="#812775"/>
</linearGradient>
<linearGradient id="paint5_linear_6597_5307" x1="42.1644" y1="110.406" x2="54.5244" y2="69.2672" gradientUnits="userSpaceOnUse">
<stop stop-color="#E36333"/>
<stop offset="0.583849" stop-color="#B73B62"/>
<stop offset="1" stop-color="#812775"/>
</linearGradient>
<linearGradient id="paint6_linear_6597_5307" x1="51.4046" y1="68.771" x2="63.7646" y2="27.632" gradientUnits="userSpaceOnUse">
<stop stop-color="#E36333"/>
<stop offset="0.583849" stop-color="#B73B62"/>
<stop offset="1" stop-color="#812775"/>
</linearGradient>
<linearGradient id="paint7_linear_6597_5307" x1="95.8177" y1="151.474" x2="103.472" y2="149.257" gradientUnits="userSpaceOnUse">
<stop stop-color="#E36333"/>
<stop offset="0.583849" stop-color="#B73B62"/>
<stop offset="1" stop-color="#812775"/>
</linearGradient>
<linearGradient id="paint8_linear_6597_5307" x1="80.7828" y1="152.264" x2="82.5428" y2="142.897" gradientUnits="userSpaceOnUse">
<stop stop-color="#E36333"/>
<stop offset="0.583849" stop-color="#B73B62"/>
<stop offset="1" stop-color="#812775"/>
</linearGradient>
</defs>
</svg>
