<svg width="24" height="24" viewBox="0 0 24 24" fill="none" xmlns="http://www.w3.org/2000/svg">
<circle cx="12" cy="12" r="12" fill="#B4D335"/>
<path fill-rule="evenodd" clip-rule="evenodd" d="M12 3.875C8.8934 3.875 6.375 6.3934 6.375 9.5C6.375 12.6066 8.8934 15.125 12 15.125C15.1066 15.125 17.625 12.6066 17.625 9.5C17.625 6.3934 15.1066 3.875 12 3.875ZM5.125 9.5C5.125 5.70304 8.20304 2.625 12 2.625C15.797 2.625 18.875 5.70304 18.875 9.5C18.875 13.297 15.797 16.375 12 16.375C8.20304 16.375 5.125 13.297 5.125 9.5Z" fill="black"/>
<path fill-rule="evenodd" clip-rule="evenodd" d="M12 6.375C10.2741 6.375 8.875 7.77411 8.875 9.5C8.875 11.2259 10.2741 12.625 12 12.625C13.7259 12.625 15.125 11.2259 15.125 9.5C15.125 7.77411 13.7259 6.375 12 6.375ZM7.625 9.5C7.625 7.08375 9.58375 5.125 12 5.125C14.4162 5.125 16.375 7.08375 16.375 9.5C16.375 11.9162 14.4162 13.875 12 13.875C9.58375 13.875 7.625 11.9162 7.625 9.5Z" fill="black"/>
<path fill-rule="evenodd" clip-rule="evenodd" d="M8.25 13.875C8.59518 13.875 8.875 14.1548 8.875 14.5V19.7387L11.7205 18.316C11.8964 18.228 12.1036 18.228 12.2795 18.316L15.125 19.7387V14.5C15.125 14.1548 15.4048 13.875 15.75 13.875C16.0952 13.875 16.375 14.1548 16.375 14.5V20.75C16.375 20.9666 16.2628 21.1678 16.0786 21.2817C15.8943 21.3955 15.6642 21.4059 15.4705 21.309L12 19.5738L8.52951 21.309C8.33577 21.4059 8.10568 21.3955 7.92142 21.2817C7.73716 21.1678 7.625 20.9666 7.625 20.75V14.5C7.625 14.1548 7.90482 13.875 8.25 13.875Z" fill="black"/>
</svg>
