<svg width="60" height="60" viewBox="0 0 60 60" fill="none" xmlns="http://www.w3.org/2000/svg">
<circle cx="30" cy="30" r="30" fill="#F37021"/>
<path fill-rule="evenodd" clip-rule="evenodd" d="M23.0263 17.254C23.3371 17.0808 23.6885 16.9936 24.0442 17.0015C24.3992 17.0093 24.7457 17.1115 25.0481 17.2976L25.05 17.2988L43.0289 28.2935C43.3229 28.4691 43.5666 28.7176 43.7362 29.0151C43.9074 29.3151 43.9974 29.6545 43.9974 29.9999C43.9974 30.3452 43.9074 30.6846 43.7362 30.9846C43.5666 31.2821 43.3229 31.5307 43.0289 31.7062L25.05 42.701L25.0478 42.7024C24.7454 42.8883 24.3991 42.9904 24.0442 42.9983C23.6885 43.0062 23.3371 42.919 23.0263 42.7457C22.7155 42.5725 22.4565 42.3195 22.2761 42.0128C22.0957 41.7061 22.0004 41.3568 22 41.001V18.9988C22.0004 18.643 22.0957 18.2937 22.2761 17.987C22.4565 17.6803 22.7155 17.4273 23.0263 17.254ZM42.5125 29.1499L41.9968 29.9931L42.0033 29.9892C42.0015 29.9903 42 29.9918 41.999 29.9937C41.9979 29.9956 41.9974 29.9977 41.9974 29.9999C41.9974 30.002 41.9979 30.0042 41.999 30.0061C42.0001 30.008 42.0016 30.0095 42.0035 30.0106L42.5125 29.1499ZM41.9857 29.9999L24 19.001L24 40.9988L24.0033 40.9968L41.9857 29.9999Z" fill="#FFFFFE"/>
</svg>
