<svg width="38" height="38" viewBox="0 0 38 38" fill="none" xmlns="http://www.w3.org/2000/svg">
<circle cx="19" cy="19" r="19" fill="#FCCD05"/>
<path fill-rule="evenodd" clip-rule="evenodd" d="M9.58579 8.58579C9.96086 8.21071 10.4696 8 11 8H27C27.5304 8 28.0391 8.21071 28.4142 8.58579C28.7893 8.96086 29 9.46957 29 10V17C29 18.3191 28.7391 19.6251 28.2322 20.8429C27.7253 22.0607 26.9825 23.1662 26.0466 24.0957C25.1106 25.0252 24 25.7604 22.7787 26.2588C21.5574 26.7572 20.2496 27.0091 18.9306 27C13.4034 26.9582 9 22.3839 9 16.8875V10C9 9.46957 9.21071 8.96086 9.58579 8.58579ZM27 10L11 10V16.8875C11 21.3161 14.5472 24.9668 18.9451 25C20.0001 25.0073 21.0461 24.8058 22.023 24.4071C23 24.0083 23.8885 23.4202 24.6372 22.6766C25.386 21.933 25.9803 21.0486 26.3858 20.0744C26.7913 19.1001 27 18.0553 27 17V10Z" fill="#1A1919"/>
<path fill-rule="evenodd" clip-rule="evenodd" d="M14 31C14 30.4477 14.4477 30 15 30H23C23.5523 30 24 30.4477 24 31C24 31.5523 23.5523 32 23 32H15C14.4477 32 14 31.5523 14 31Z" fill="#1A1919"/>
<path fill-rule="evenodd" clip-rule="evenodd" d="M19 25C19.5523 25 20 25.4477 20 26V31C20 31.5523 19.5523 32 19 32C18.4477 32 18 31.5523 18 31V26C18 25.4477 18.4477 25 19 25Z" fill="#1A1919"/>
<path fill-rule="evenodd" clip-rule="evenodd" d="M26.9999 12C26.9999 11.4477 27.4476 11 27.9999 11H31.9999C32.5303 11 33.039 11.2107 33.4141 11.5858C33.7892 11.9609 33.9999 12.4696 33.9999 13V15C33.9999 16.3261 33.4731 17.5979 32.5354 18.5355C31.5978 19.4732 30.326 20 28.9999 20H27.7749C27.2226 20 26.7749 19.5523 26.7749 19C26.7749 18.4477 27.2226 18 27.7749 18H28.9999C29.7956 18 30.5586 17.6839 31.1212 17.1213C31.6838 16.5587 31.9999 15.7956 31.9999 15L31.9999 13H27.9999C27.4476 13 26.9999 12.5523 26.9999 12Z" fill="#1A1919"/>
<path fill-rule="evenodd" clip-rule="evenodd" d="M4.57309 11.5858C4.94816 11.2107 5.45687 11 5.9873 11H9.9873C10.5396 11 10.9873 11.4477 10.9873 12C10.9873 12.5523 10.5396 13 9.9873 13H5.9873V15C5.9873 15.7956 6.30338 16.5587 6.86598 17.1213C7.42859 17.6839 8.19166 18 8.9873 18H10.2498C10.8021 18 11.2498 18.4477 11.2498 19C11.2498 19.5523 10.8021 20 10.2498 20H8.9873C7.66122 20 6.38945 19.4732 5.45177 18.5355C4.51409 17.5979 3.9873 16.3261 3.9873 15V13C3.9873 12.4696 4.19802 11.9609 4.57309 11.5858Z" fill="#1A1919"/>
</svg>
