<svg width="38" height="38" viewBox="0 0 38 38" fill="none" xmlns="http://www.w3.org/2000/svg">
<circle cx="19" cy="19" r="19" fill="#17E9E0"/>
<path fill-rule="evenodd" clip-rule="evenodd" d="M17.8311 5.36078C18.1736 5.12087 18.5817 4.99219 18.9999 4.99219C19.4181 4.99219 19.8262 5.12088 20.1687 5.36078C20.5066 5.59743 20.7646 5.931 20.9088 6.31724L23.6543 13.231L23.6625 13.2523C23.665 13.2592 23.6695 13.2651 23.6754 13.2694C23.6812 13.2738 23.6882 13.2763 23.6955 13.2767L23.7017 13.2771L31.0767 13.7521C32.9911 13.8764 33.6454 16.2729 32.2521 17.4312L32.2513 17.4318L26.6029 22.143L26.5996 22.1457C26.5869 22.1562 26.5775 22.1701 26.5723 22.1857C26.5673 22.201 26.5665 22.2173 26.5702 22.2329L26.5705 22.2342L28.394 29.4035C28.8356 31.1464 26.9536 32.716 25.3164 31.6833L25.3139 31.6817L19.0139 27.6817C19.0099 27.6792 19.0047 27.6775 18.9999 27.6775C18.9951 27.6775 18.9905 27.6788 18.9865 27.6814L18.9849 27.6824L13.1243 31.3937L13.1234 31.3943C11.3274 32.5361 9.25301 30.8001 9.7433 28.8784L11.4293 22.2342L11.4296 22.2331C11.4333 22.2174 11.4326 22.201 11.4275 22.1857C11.4224 22.1701 11.4129 22.1562 11.4002 22.1457L11.3969 22.143L5.7485 17.4318L5.7477 17.4312C4.35441 16.2729 5.00816 13.8764 6.92261 13.7521L14.3043 13.2767C14.3116 13.2763 14.3186 13.2738 14.3244 13.2694C14.3303 13.2651 14.3348 13.2592 14.3373 13.2523L14.3455 13.231L17.091 6.31724C17.2352 5.931 17.4932 5.59743 17.8311 5.36078ZM20.0865 25.9937L26.3834 29.9917C26.3948 29.9988 26.4023 30.0016 26.4043 30.0022C26.4069 30.0017 26.4156 29.9993 26.4274 29.9903C26.4426 29.9788 26.4523 29.9645 26.4566 29.9529C26.4586 29.9476 26.4599 29.9418 26.4603 29.9347C26.4607 29.928 26.4605 29.9154 26.4556 29.8958L24.6293 22.7159C24.5346 22.3341 24.5497 21.9333 24.6728 21.5598C24.7956 21.1869 25.0211 20.8563 25.3234 20.6059L25.3252 20.6044L30.9735 15.8932C30.9852 15.8835 30.9902 15.8766 30.9923 15.8732C30.9946 15.8695 30.9966 15.8653 30.9981 15.8593C31.0017 15.8458 31.0029 15.8226 30.9946 15.7957C30.9863 15.7689 30.974 15.7559 30.9704 15.7528L30.9684 15.7515C30.9684 15.7515 30.9625 15.7489 30.9479 15.748L23.5793 15.2733L23.5758 15.2731C23.1819 15.2495 22.8033 15.112 22.486 14.8773C22.1713 14.6446 21.9304 14.3262 21.792 13.9603L19.0455 7.04411C19.0419 7.03508 19.0385 7.026 19.0351 7.01687C19.0325 7.00964 19.0277 7.00339 19.0214 6.99897C19.0151 6.99456 19.0076 6.99219 18.9999 6.99219C18.9922 6.99219 18.9847 6.99456 18.9784 6.99897C18.9721 7.00339 18.9673 7.00964 18.9647 7.01687C18.9613 7.026 18.9579 7.03508 18.9543 7.04411L16.2078 13.9603C16.0694 14.3262 15.8285 14.6446 15.5138 14.8773C15.1966 15.112 14.818 15.2495 14.4241 15.2731L7.0522 15.7479C7.03764 15.7489 7.03152 15.7515 7.03152 15.7515L7.02941 15.7528C7.02578 15.7559 7.01348 15.7689 7.00519 15.7957C6.99687 15.8226 6.99812 15.8458 7.00167 15.8593C7.00323 15.8653 7.00523 15.8695 7.00755 15.8732C7.00966 15.8766 7.01461 15.8835 7.02631 15.8932L7.02792 15.8946L12.6746 20.6044L12.6766 20.606C12.9787 20.8564 13.2042 21.187 13.327 21.5598C13.4501 21.9333 13.4652 22.3341 13.3705 22.7159L13.3692 22.721L11.6813 29.3726C11.6451 29.514 11.695 29.6236 11.7863 29.693C11.8331 29.7285 11.8803 29.7438 11.9176 29.7464C11.9485 29.7486 11.9912 29.7441 12.0505 29.7064L17.9133 25.9937L17.9149 25.9927C18.2393 25.7868 18.6156 25.6775 18.9999 25.6775C19.3846 25.6775 19.7618 25.7874 20.0865 25.9937Z" fill="#1A1919"/>
</svg>
