<svg width="24" height="24" viewBox="0 0 24 24" fill="none" xmlns="http://www.w3.org/2000/svg">
<circle cx="12" cy="12" r="12" fill="#FFFFFE"/>
<path fill-rule="evenodd" clip-rule="evenodd" d="M12.0004 6.94736C9.55873 6.94736 7.57936 8.92673 7.57936 11.3684C7.57936 13.8101 9.55873 15.7895 12.0004 15.7895C14.4421 15.7895 16.4215 13.8101 16.4215 11.3684C16.4215 8.92673 14.4421 6.94736 12.0004 6.94736ZM6.3162 11.3684C6.3162 8.22911 8.86111 5.6842 12.0004 5.6842C15.1397 5.6842 17.6846 8.22911 17.6846 11.3684C17.6846 14.5077 15.1397 17.0526 12.0004 17.0526C8.86111 17.0526 6.3162 14.5077 6.3162 11.3684Z" fill="#9F248F"/>
<path fill-rule="evenodd" clip-rule="evenodd" d="M12.0005 17.0519C10.5591 17.0519 9.14316 17.4313 7.89493 18.152C6.64669 18.8728 5.61019 19.9094 4.88961 21.1578C4.71524 21.4599 4.32898 21.5634 4.02688 21.389C3.72479 21.2146 3.62125 20.8284 3.79563 20.5263C4.62706 19.0859 5.82303 17.8898 7.2633 17.0581C8.70357 16.2265 10.3374 15.7887 12.0005 15.7887C13.6636 15.7887 15.2975 16.2265 16.7377 17.0581C18.178 17.8898 19.374 19.0859 20.2054 20.5263C20.3798 20.8284 20.2762 21.2146 19.9742 21.389C19.6721 21.5634 19.2858 21.4599 19.1114 21.1578C18.3908 19.9094 17.3543 18.8728 16.1061 18.152C14.8579 17.4313 13.4419 17.0519 12.0005 17.0519Z" fill="#9F248F"/>
</svg>
