<svg width="41" height="40" viewBox="0 0 41 40" fill="none" xmlns="http://www.w3.org/2000/svg">
<rect y="40" width="40" height="3.56522" rx="1.78261" transform="rotate(-90 0 40)" fill="#F37021"/>
<rect x="5.34766" y="33" width="26" height="3.56522" rx="1.78261" transform="rotate(-90 5.34766 33)" fill="#F37021"/>
<rect x="10.6958" y="28" width="16" height="3.56522" rx="1.78261" transform="rotate(-90 10.6958 28)" fill="#636463"/>
<rect x="16.0435" y="33" width="26" height="3.56522" rx="1.78261" transform="rotate(-90 16.0435 33)" fill="#636463"/>
<rect x="21.3911" y="40" width="40" height="3.56522" rx="1.78261" transform="rotate(-90 21.3911 40)" fill="#636463"/>
<rect x="26.7393" y="33" width="26" height="3.56522" rx="1.78261" transform="rotate(-90 26.7393 33)" fill="#636463"/>
<rect x="32.0869" y="28" width="16" height="3.56522" rx="1.78261" transform="rotate(-90 32.0869 28)" fill="#636463"/>
<rect x="37.4346" y="33" width="26" height="3.56522" rx="1.78261" transform="rotate(-90 37.4346 33)" fill="#636463"/>
</svg>
