<svg width="24" height="24" viewBox="0 0 24 24" fill="none" xmlns="http://www.w3.org/2000/svg">
<path d="M12 22C11.8625 22 11.726 21.9646 11.6018 21.8937C11.1689 21.6458 1 15.7354 1 8.25002C1 4.80419 3.74185 2.00003 7.11111 2.00003C9.06972 2.00003 10.8654 2.94586 12.001 4.49794C13.6378 2.2667 16.6088 1.35941 19.2396 2.48128C21.5242 3.45524 23 5.71982 23 8.25002C23 15.7354 12.8311 21.6458 12.3982 21.8937C12.275 21.9646 12.1375 22 12 22ZM7.11111 3.66669C4.64019 3.66669 2.62963 5.72294 2.62963 8.25002C2.62963 13.9958 10.1646 19.0521 12 20.1979C13.8354 19.0521 21.3704 13.9958 21.3704 8.25002C21.3704 6.39377 20.2877 4.73336 18.6122 4.01878C17.5071 3.54794 16.289 3.54482 15.1819 4.01148C14.0747 4.47815 13.212 5.35627 12.7517 6.48648C12.6254 6.7969 12.328 6.99898 12 6.99898C11.672 6.99898 11.3746 6.7969 11.2483 6.48648C10.5506 4.77294 8.92611 3.66565 7.11111 3.66565V3.66669Z" fill="#FFFFFE"/>
</svg>
