<svg width="24" height="24" viewBox="0 0 24 24" fill="none" xmlns="http://www.w3.org/2000/svg">
<path d="M12 4.5C14.071 4.5 15.75 6.17893 15.75 8.25V10.5C15.75 10.5313 15.7498 10.5626 15.749 10.5938C17.0435 10.9264 18 12.1017 18 13.5V16.5C18 18.1568 16.6568 19.5 15 19.5H9C7.34314 19.5 6 18.1568 6 16.5V13.5C6 12.1017 6.9565 10.9264 8.25098 10.5938C8.25021 10.5626 8.25 10.5313 8.25 10.5V8.25C8.25 6.17893 9.92893 4.5 12 4.5ZM9 12C8.17157 12 7.5 12.6716 7.5 13.5V16.5C7.5 17.3284 8.17157 18 9 18H15C15.8284 18 16.5 17.3284 16.5 16.5V13.5C16.5 12.6716 15.8284 12 15 12H9ZM12 13.5C12.4142 13.5 12.75 13.8358 12.75 14.25V15C12.75 15.4142 12.4142 15.75 12 15.75C11.5858 15.75 11.25 15.4142 11.25 15V14.25C11.25 13.8358 11.5858 13.5 12 13.5ZM12 6C10.7573 6 9.75 7.00736 9.75 8.25V10.5H14.25V8.25C14.25 7.00736 13.2427 6 12 6Z" fill="#FFFFFE"/>
</svg>
