<svg width="24" height="24" viewBox="0 0 24 24" fill="none" xmlns="http://www.w3.org/2000/svg">
<path fill-rule="evenodd" clip-rule="evenodd" d="M15.75 3C12.8505 3 10.5 5.3505 10.5 8.25C10.5 11.1495 12.8505 13.5 15.75 13.5C18.6495 13.5 21 11.1495 21 8.25C21 5.3505 18.6495 3 15.75 3ZM9 8.25C9 4.52208 12.0221 1.5 15.75 1.5C19.4779 1.5 22.5 4.52208 22.5 8.25C22.5 11.9779 19.4779 15 15.75 15C12.0221 15 9 11.9779 9 8.25Z" fill="#FFFFFE"/>
<path fill-rule="evenodd" clip-rule="evenodd" d="M10.9727 3.47281C11.2656 3.17992 11.7405 3.17992 12.0334 3.47281L20.5271 11.9666C20.82 12.2595 20.82 12.7343 20.5271 13.0272C20.2342 13.3201 19.7594 13.3201 19.4665 13.0272L10.9727 4.53347C10.6798 4.24058 10.6798 3.76571 10.9727 3.47281Z" fill="#FFFFFE"/>
<path fill-rule="evenodd" clip-rule="evenodd" d="M9.90533 14.0947C10.1982 14.3876 10.1982 14.8624 9.90533 15.1553L8.78033 16.2803C8.48744 16.5732 8.01256 16.5732 7.71967 16.2803C7.42678 15.9874 7.42678 15.5126 7.71967 15.2197L8.84467 14.0947C9.13756 13.8018 9.61244 13.8018 9.90533 14.0947Z" fill="#FFFFFE"/>
<path fill-rule="evenodd" clip-rule="evenodd" d="M10.2684 8.5733C10.6025 8.81824 10.6747 9.28758 10.4298 9.62162L3.23913 19.4279L3.23968 19.429L4.57165 20.761L14.3783 13.5702C14.7123 13.3252 15.1817 13.3975 15.4266 13.7315C15.6716 14.0655 15.5993 14.5349 15.2653 14.7798L5.46194 21.9683C5.17306 22.1838 4.81584 22.2873 4.4564 22.2597C4.09707 22.2321 3.75998 22.0752 3.50748 21.8182L2.18169 20.4924C1.92474 20.2399 1.76787 19.9028 1.74023 19.5435C1.71258 19.1841 1.81614 18.8269 2.03161 18.538L9.22011 8.73462C9.46505 8.40059 9.9344 8.32836 10.2684 8.5733Z" fill="#FFFFFE"/>
</svg>
