<svg width="34" height="34" viewBox="0 0 34 34" fill="none" xmlns="http://www.w3.org/2000/svg">
<path d="M27.9389 10.4186L29.2989 9.08968C29.8274 8.57326 29.8274 7.73592 29.2989 7.21976C28.7704 6.70335 27.9137 6.70335 27.3852 7.21976L26.0252 8.54869C23.7435 6.69093 20.9708 5.56862 18.0131 5.30589V2.64467H19.3212C20.0686 2.64467 20.6744 2.05248 20.6744 1.32221C20.6744 0.591928 20.0686 0 19.3212 0H13.9985C13.2511 0 12.6453 0.591928 12.6453 1.32221C12.6453 2.05248 13.2511 2.64467 13.9985 2.64467H15.3066V5.30589C7.9029 5.96376 2 12.0413 2 19.5698C2 27.487 8.55657 33.8948 16.66 33.8948C24.7621 33.8948 31.3197 27.4881 31.3197 19.5698C31.3197 16.1879 30.1277 12.9852 27.9389 10.4186V10.4186ZM16.6597 31.2501C10.0687 31.2501 4.70625 26.0104 4.70625 19.5698C4.70625 13.1295 10.0687 7.88979 16.6597 7.88979C23.251 7.88979 28.6132 13.1295 28.6132 19.5698C28.6132 26.0104 23.251 31.2501 16.6597 31.2501ZM22.931 13.4421C23.4595 13.9585 23.4595 14.7959 22.931 15.312L17.6167 20.5049C17.0882 21.0213 16.2313 21.0213 15.703 20.5049C15.1745 19.9885 15.1745 19.1512 15.703 18.635L21.0171 13.4421C21.5456 12.9257 22.4025 12.9257 22.931 13.4421V13.4421Z" fill="#FFFFFE"/>
</svg>
