<svg width="24" height="24" viewBox="0 0 24 24" fill="none" xmlns="http://www.w3.org/2000/svg">
<circle cx="12" cy="12" r="12" fill="#F37021"/>
<path fill-rule="evenodd" clip-rule="evenodd" d="M11.365 5.71015C11.5574 5.59675 11.7766 5.53694 11.9999 5.53694C12.2232 5.53694 12.4424 5.59675 12.6347 5.71015C12.8269 5.82344 12.9852 5.98608 13.0933 6.18119M13.0936 6.18179L15.3869 10.316C15.3879 10.3173 15.3893 10.3183 15.3909 10.3189C15.3926 10.3195 15.3945 10.3194 15.3963 10.3187L19.3475 8.56172L19.3496 8.56079C19.5629 8.4669 19.7981 8.43448 20.0288 8.4672C20.2595 8.49992 20.4765 8.59648 20.6552 8.74597C20.834 8.89546 20.9674 9.09194 21.0404 9.31322C21.1132 9.53391 21.123 9.77052 21.0688 9.99647L21.0684 9.99829L19.0759 18.4603C19.0362 18.6236 18.9641 18.7773 18.864 18.9122C18.7639 19.0472 18.6377 19.1608 18.4929 19.2462C18.3482 19.3316 18.1878 19.3871 18.0212 19.4095C17.8546 19.4319 17.6852 19.4206 17.5231 19.3764L17.5206 19.3758C13.9055 18.3748 10.0864 18.3748 6.47136 19.3758L6.4689 19.3764C6.30675 19.4206 6.13737 19.4319 5.97079 19.4095C5.8042 19.3871 5.6438 19.3316 5.49905 19.2462C5.35429 19.1608 5.22812 19.0472 5.12798 18.9122C5.02785 18.7773 4.95578 18.6236 4.91605 18.4603L4.91482 18.4552L2.93142 9.99829L2.93086 9.99593C2.87678 9.77014 2.88666 9.53374 2.95941 9.31322C3.0324 9.09194 3.1658 8.89546 3.34454 8.74597C3.52328 8.59648 3.74025 8.49992 3.97095 8.4672C4.20165 8.43448 4.43691 8.4669 4.65017 8.56079L4.65227 8.56171L8.60331 10.3186C8.60503 10.3193 8.60715 10.3195 8.60891 10.3189C8.61051 10.3183 8.61188 10.3173 8.61285 10.316L10.9065 6.18119C11.0146 5.98608 11.1729 5.82344 11.365 5.71015M9.69907 10.9347C9.54495 11.2049 9.29613 11.4084 9.00073 11.5059C8.70534 11.6034 8.38429 11.588 8.0996 11.4626L8.09751 11.4617L4.14648 9.70482L4.14746 9.70884L6.13075 18.1652L6.13193 18.1675L6.13335 18.169L6.13423 18.1696L6.13716 18.1706L6.14003 18.1705C9.97271 17.1097 14.0216 17.1099 17.8542 18.1711L17.6874 18.7734L17.8517 18.1704L17.8548 18.1706L17.8577 18.1696L17.86 18.1675L17.8609 18.166L17.8612 18.1652L19.8525 9.70831L19.8533 9.70482L15.9023 11.4617L15.9002 11.4626C15.6155 11.588 15.2944 11.6034 14.999 11.5059C14.7037 11.4084 14.4549 11.2049 14.3007 10.9347L14.2971 10.9282L11.9999 6.78694L9.69907 10.9347Z" fill="#FFFFFE"/>
<path fill-rule="evenodd" clip-rule="evenodd" d="M14.4327 16.2542C12.8156 16.0793 11.1843 16.0793 9.56711 16.2542C9.22393 16.2913 8.91566 16.0431 8.87855 15.7C8.84145 15.3568 9.08957 15.0485 9.43275 15.0114C11.1392 14.8269 12.8606 14.8269 14.5671 15.0114C14.9103 15.0485 15.1584 15.3568 15.1213 15.7C15.0842 16.0431 14.7759 16.2913 14.4327 16.2542Z" fill="#FFFFFE"/>
</svg>
