<svg width="208" height="180" viewBox="0 0 208 180" fill="none" xmlns="http://www.w3.org/2000/svg">
<path d="M138.68 139.669H69.0911C51.9751 139.669 37.998 125.692 37.998 108.576V72.0938C37.998 54.9778 51.9751 41.0007 69.0911 41.0007H138.68C155.856 41.0007 169.774 54.9778 169.774 72.0938V108.576C169.774 125.692 155.796 139.669 138.68 139.669ZM69.0911 46.0349C54.6995 46.0349 43.0322 57.7022 43.0322 72.0938V108.576C43.0322 122.968 54.6995 134.635 69.0911 134.635H138.68C153.072 134.635 164.739 122.968 164.739 108.576V72.0938C164.739 57.7022 153.072 46.0349 138.68 46.0349H69.0911Z" fill="url(#paint0_linear_6597_5338)"/>
<path d="M89.3461 81.9252H43.7429C40.5447 81.9252 37.998 79.3193 37.998 76.1803V72.0938C37.998 54.9778 51.9751 41.0007 69.0911 41.0007H89.3461C92.5442 41.0007 95.0909 43.6066 95.0909 46.7456V76.1211C95.0909 79.3193 92.485 81.9252 89.3461 81.9252ZM69.0911 46.0349C54.6995 46.0349 43.0322 57.7022 43.0322 72.0938V76.1803C43.0322 76.5949 43.3283 76.891 43.7429 76.891H89.2868C89.7014 76.891 89.9976 76.5949 89.9976 76.1803V46.7456C89.9976 46.331 89.7014 46.0349 89.2868 46.0349H69.0911Z" fill="url(#paint1_linear_6597_5338)"/>
<path d="M164.029 81.9252H118.485C115.287 81.9252 112.74 79.3193 112.74 76.1803V46.7456C112.74 43.5474 115.346 41.0007 118.485 41.0007H138.681C155.856 41.0007 169.774 54.9778 169.774 72.0938V76.1803C169.774 79.3193 167.168 81.9252 164.029 81.9252ZM118.426 46.0349C118.011 46.0349 117.715 46.331 117.715 46.7456V76.1211C117.715 76.5357 118.011 76.8318 118.426 76.8318H163.97C164.384 76.8318 164.681 76.5357 164.681 76.1211V72.0346C164.681 57.6429 153.013 45.9756 138.622 45.9756H118.426V46.0349Z" fill="url(#paint2_linear_6597_5338)"/>
<path d="M89.3461 139.669H69.0911C51.9751 139.669 37.998 125.692 37.998 108.576V104.489C37.998 101.291 40.6039 98.7443 43.7429 98.7443H89.2868C92.485 98.7443 95.0317 101.35 95.0317 104.489V133.865C95.0909 137.063 92.485 139.669 89.3461 139.669ZM43.7429 103.778C43.3283 103.778 43.0322 104.075 43.0322 104.489V108.576C43.0322 122.967 54.6995 134.635 69.0911 134.635H89.3461C89.7606 134.635 90.0568 134.338 90.0568 133.924V104.548C90.0568 104.134 89.7606 103.838 89.3461 103.838H43.7429V103.778Z" fill="url(#paint3_linear_6597_5338)"/>
<path d="M138.681 139.67H118.426C115.228 139.67 112.682 137.064 112.682 133.925V104.549C112.682 101.351 115.288 98.8045 118.426 98.8045H163.97C167.169 98.8045 169.715 101.41 169.715 104.549V108.636C169.774 125.693 155.797 139.67 138.681 139.67ZM118.426 103.779C118.012 103.779 117.716 104.076 117.716 104.49V133.866C117.716 134.28 118.012 134.576 118.426 134.576H138.681C153.073 134.576 164.74 122.909 164.74 108.517V104.431C164.74 104.016 164.444 103.72 164.03 103.72H118.426V103.779Z" fill="url(#paint4_linear_6597_5338)"/>
<path d="M51.3249 133.51C50.555 133.51 49.8443 133.154 49.3113 132.503C48.4821 131.378 48.6598 129.838 49.7851 128.95L88.1628 99.2778C89.2881 98.4487 90.8279 98.6263 91.7163 99.7516C92.5455 100.877 92.3678 102.417 91.2425 103.305L52.8648 132.977C52.4502 133.332 51.8579 133.51 51.3249 133.51Z" fill="url(#paint5_linear_6597_5338)"/>
<path d="M118.071 81.9247C117.301 81.9247 116.59 81.5694 116.057 80.9179C115.228 79.7926 115.406 78.2528 116.531 77.3644L154.909 47.6927C156.034 46.8636 157.574 47.0413 158.462 48.1665C159.292 49.2918 159.114 50.8316 157.989 51.72L119.611 81.3917C119.137 81.7471 118.604 81.9247 118.071 81.9247Z" fill="url(#paint6_linear_6597_5338)"/>
<path d="M88.0434 81.9254C87.5104 81.9254 86.9774 81.7477 86.5036 81.3924L48.955 52.3722C47.8297 51.543 47.652 49.944 48.4812 48.8187C49.3103 47.6934 50.9094 47.5157 52.0347 48.3449L89.5833 77.3651C90.7086 78.1943 90.8862 79.7933 90.0571 80.9186C89.5833 81.5701 88.8134 81.9254 88.0434 81.9254Z" fill="url(#paint7_linear_6597_5338)"/>
<path d="M155.56 134.161C155.027 134.161 154.494 133.984 154.02 133.628L115.287 103.661C114.162 102.831 113.984 101.232 114.813 100.107C115.642 98.9818 117.241 98.8041 118.367 99.6333L157.1 129.601C158.225 130.43 158.403 132.029 157.574 133.155C157.1 133.806 156.33 134.161 155.56 134.161Z" fill="url(#paint8_linear_6597_5338)"/>
<defs>
<linearGradient id="paint0_linear_6597_5338" x1="29.2399" y1="131.833" x2="122.341" y2="25.4594" gradientUnits="userSpaceOnUse">
<stop stop-color="#E36333"/>
<stop offset="0.583849" stop-color="#B73B62"/>
<stop offset="1" stop-color="#812775"/>
</linearGradient>
<linearGradient id="paint1_linear_6597_5338" x1="34.2035" y1="78.6748" x2="72.5605" y2="32.8958" gradientUnits="userSpaceOnUse">
<stop stop-color="#E36333"/>
<stop offset="0.583849" stop-color="#B73B62"/>
<stop offset="1" stop-color="#812775"/>
</linearGradient>
<linearGradient id="paint2_linear_6597_5338" x1="108.95" y1="78.6748" x2="147.314" y2="32.935" gradientUnits="userSpaceOnUse">
<stop stop-color="#E36333"/>
<stop offset="0.583849" stop-color="#B73B62"/>
<stop offset="1" stop-color="#812775"/>
</linearGradient>
<linearGradient id="paint3_linear_6597_5338" x1="34.2074" y1="136.418" x2="72.5712" y2="90.6779" gradientUnits="userSpaceOnUse">
<stop stop-color="#E36333"/>
<stop offset="0.583849" stop-color="#B73B62"/>
<stop offset="1" stop-color="#812775"/>
</linearGradient>
<linearGradient id="paint4_linear_6597_5338" x1="108.891" y1="136.424" x2="147.19" y2="90.6957" gradientUnits="userSpaceOnUse">
<stop stop-color="#E36333"/>
<stop offset="0.583849" stop-color="#B73B62"/>
<stop offset="1" stop-color="#812775"/>
</linearGradient>
<linearGradient id="paint5_linear_6597_5338" x1="45.9079" y1="130.75" x2="78.9128" y2="95.4534" gradientUnits="userSpaceOnUse">
<stop stop-color="#E36333"/>
<stop offset="0.583849" stop-color="#B73B62"/>
<stop offset="1" stop-color="#812775"/>
</linearGradient>
<linearGradient id="paint6_linear_6597_5338" x1="112.654" y1="79.1649" x2="145.659" y2="43.8683" gradientUnits="userSpaceOnUse">
<stop stop-color="#E36333"/>
<stop offset="0.583849" stop-color="#B73B62"/>
<stop offset="1" stop-color="#812775"/>
</linearGradient>
<linearGradient id="paint7_linear_6597_5338" x1="45.133" y1="79.2174" x2="77.5198" y2="44.5937" gradientUnits="userSpaceOnUse">
<stop stop-color="#E36333"/>
<stop offset="0.583849" stop-color="#B73B62"/>
<stop offset="1" stop-color="#812775"/>
</linearGradient>
<linearGradient id="paint8_linear_6597_5338" x1="111.386" y1="131.378" x2="144.673" y2="95.7919" gradientUnits="userSpaceOnUse">
<stop stop-color="#E36333"/>
<stop offset="0.583849" stop-color="#B73B62"/>
<stop offset="1" stop-color="#812775"/>
</linearGradient>
</defs>
</svg>
