<svg width="208" height="180" viewBox="0 0 208 180" fill="none" xmlns="http://www.w3.org/2000/svg">
<path d="M110.611 134.393C110.492 134.393 110.374 134.393 110.315 134.393C108.064 134.097 106.88 132.617 106.169 131.61C105.399 130.603 105.399 130.603 104.451 130.84C103.8 131.018 103.089 130.958 102.556 130.603C101.964 130.248 101.549 129.715 101.372 129.063C99.7726 123.141 98.2327 119.469 96.8113 118.107C96.1599 117.455 95.6861 117.455 93.7909 117.81C90.8889 118.284 86.5062 118.995 80.9983 113.428C73.5952 106.558 70.6339 106.617 69.6863 106.972C66.962 108.038 66.1328 116.093 65.5998 122.015C65.3629 124.207 65.1852 126.457 64.8891 128.589C64.7114 129.655 63.9415 130.485 62.8755 130.721C61.8094 130.958 60.7434 130.485 60.2103 129.537C58.3744 126.457 56.8937 125.569 55.9461 125.332C54.8801 125.095 53.9917 125.569 52.8664 126.22C52.0373 126.753 50.4382 127.701 48.8984 126.576C47.3585 125.45 47.6546 123.555 48.0692 121.719C46.3517 121.305 44.6934 119.41 43.3904 117.633C39.9554 112.954 39.0078 109.578 40.7253 107.624C41.1991 107.091 41.7322 106.795 42.3244 106.617C42.3836 106.143 42.5021 105.729 42.739 105.255C43.7458 103.3 45.8779 102.886 47.4177 102.59C48.01 102.471 48.7799 102.353 49.1945 102.175C49.7275 101.287 50.4382 99.8061 49.6683 99.2138C48.01 97.9701 42.8574 98.6808 40.37 101.583C39.9554 102.116 39.3039 102.412 38.6525 102.471C37.1718 102.59 35.9281 102.234 35.0397 101.464C33.6183 100.221 33.5591 98.5031 33.4999 97.1409C33.3814 95.0088 33.3814 94.3574 30.2425 94.2981C29.2357 94.2981 28.3473 93.6467 27.9327 92.6991C25.5637 86.6581 25.0307 83.9338 28.2881 77.3598C28.525 76.353 29.1172 74.4578 31.0124 74.0432C31.96 73.8655 32.6707 74.1024 33.3222 74.517V74.4578C33.7368 73.6879 34.4475 73.1548 35.3359 72.9772C35.8097 72.8587 36.2242 72.5034 36.8757 71.7927C37.7049 70.9043 38.8894 69.779 40.7253 69.246C46.4701 64.2711 52.6295 68.0023 56.7753 70.4897C58.6113 71.5558 60.8026 72.9179 61.8094 72.7403C63.7046 69.8382 66.962 70.6674 68.2057 70.9635C68.3242 70.9635 68.3834 71.0227 68.5018 71.0227C69.0941 70.4897 69.8048 70.1344 70.5747 70.0751C72.4699 69.8382 73.7728 71.082 74.7204 72.0296C74.9573 72.2665 75.3719 72.681 75.6088 72.7995C75.8457 72.8587 76.0234 72.9179 76.2603 72.9772C76.9118 72.3257 77.5632 72.0888 78.1555 71.9703C77.8594 71.7334 77.6225 71.4373 77.4448 71.082C77.2671 70.9635 77.0894 70.8451 76.9118 70.7266C75.668 69.5421 75.668 68.3576 75.7865 67.7061C76.0826 66.1663 77.3856 65.5148 78.4516 65.1002C78.0963 63.975 78.2739 63.0866 78.5701 62.4943C78.9254 61.6652 79.5769 61.0729 80.3468 60.7176C79.9322 60.0069 79.6953 59.1185 79.8138 58.1709C80.3468 54.4398 85.6178 53.4922 94.3239 51.8931C99.2396 51.0047 108.301 49.2872 109.367 47.3328C109.959 46.2075 111.262 45.7337 112.447 46.1483C114.875 47.0366 116.296 47.0959 117.303 47.2143C120.679 47.392 121.508 48.6949 122.693 52.663C124.173 52.663 125.358 53.1368 126.305 53.5514C127.371 54.0252 127.786 54.1436 128.319 53.966C128.734 53.8475 129.148 53.7883 129.563 53.8475C131.221 54.1436 131.813 55.1505 132.05 55.7427C132.939 55.2689 133.886 54.7359 134.538 54.3805C137.973 52.4261 140.46 51.0639 142.415 52.7815C143.303 53.5514 143.481 54.5582 143.421 55.5058C146.679 57.5787 148.929 61.7836 150.943 65.574C151.713 66.9954 152.779 69.0091 153.608 70.0751C153.963 69.779 154.378 69.5421 154.852 69.4237C156.688 68.9499 158.05 70.1344 159.057 71.0227C160.834 72.6218 161.367 72.8587 162.788 71.6742C163.084 71.4373 163.439 71.2596 163.795 71.2004C168.118 70.1936 170.546 73.7471 172.323 76.2938C174.337 79.1958 174.751 79.3735 175.462 78.9589C176.054 78.3074 177.298 77.3006 178.838 77.8336C180.319 78.3074 180.674 79.6696 180.792 80.4395C181.799 81.624 182.273 82.8677 182.214 84.1114C182.095 86.4804 180.2 87.9018 178.601 89.1456C175.995 91.1592 176.114 91.4553 176.647 92.3437C176.883 92.8175 177.002 93.2913 176.943 93.8243C176.765 95.7788 175.995 97.2594 174.633 98.207C172.382 99.7468 169.48 99.0361 167.111 98.3847C166.756 98.2662 166.401 98.207 166.045 98.1478C164.802 101.701 164.861 103.36 164.92 104.307C164.979 105.077 165.098 106.735 163.499 107.742C162.729 108.275 161.84 108.394 160.123 108.631C159.234 108.749 158.05 108.927 156.51 109.223C158.465 117.1 158.465 120.476 156.569 122.371C154.556 124.384 151.654 123.614 148.574 122.785C146.027 122.134 142.888 121.305 139.453 121.542C137.144 122.548 134.834 121.601 133.057 120.831C132.583 120.653 131.873 120.357 131.399 120.239C131.339 121.245 131.043 122.548 129.859 123.378C128.082 124.621 126.068 123.674 124.469 122.963C123.936 122.726 122.87 122.193 122.278 122.134C121.094 124.621 118.902 126.102 116.948 127.405C114.52 129.063 113.098 130.07 112.98 132.084C112.921 132.794 112.624 133.446 112.091 133.86C111.795 134.157 111.203 134.393 110.611 134.393ZM105.577 125.687C107.413 125.806 108.597 126.753 109.426 127.642C110.67 125.628 112.624 124.325 114.342 123.2C116.119 122.015 117.659 121.009 118.073 119.528C118.192 119.113 118.428 118.699 118.725 118.403C121.33 115.915 124.588 117.337 126.661 118.284C126.72 118.166 126.72 118.107 126.779 117.988C129.089 113.605 133.175 115.323 135.13 116.152C135.841 116.448 137.262 117.041 137.558 116.863C137.854 116.685 138.269 116.567 138.624 116.507C143.184 116.093 147.093 117.159 149.936 117.87C150.943 118.166 152.305 118.521 153.016 118.58C153.134 117.692 152.957 115.086 151.061 107.861C150.884 107.209 151.002 106.498 151.358 105.906C151.713 105.314 152.305 104.899 153.016 104.781C156.096 104.129 158.168 103.833 159.531 103.656C159.708 103.656 159.827 103.596 160.004 103.596C160.004 101.938 160.241 99.0954 162.255 94.3574C162.669 93.4098 163.558 92.8175 164.565 92.8175C165.868 92.8175 167.23 93.1729 168.533 93.5282C169.48 93.7651 171.316 94.2389 171.849 94.0612C171.849 94.0612 171.909 94.002 171.909 93.9428C170.073 89.4417 173.804 86.5989 175.699 85.1775C176.173 84.8221 176.883 84.2299 177.239 83.8745L177.18 83.8153C172.797 85.5328 169.954 81.4463 168.355 79.1958C166.993 77.2414 166.223 76.2345 165.453 76.1161C161.248 79.0181 157.813 76.5307 156.214 75.1685C156.096 75.2869 155.918 75.3462 155.74 75.4054C151.535 77.1821 149.048 72.5034 146.62 67.943C144.724 64.3895 142.415 60.0069 139.927 59.4146C139.216 59.237 138.683 58.7632 138.328 58.1709C137.913 58.4078 137.499 58.6447 137.144 58.8224C134.123 60.5399 131.221 62.139 128.793 61.8429C126.898 61.7836 126.187 60.7768 125.891 60.1253C125.654 59.6515 125.595 59.1777 125.654 58.7632C125.18 58.5855 124.766 58.4078 124.351 58.2894C123.048 57.6971 122.811 57.6971 122.219 57.9932C121.567 58.3486 120.738 58.4078 120.028 58.1117C119.317 57.8156 118.784 57.2233 118.547 56.4534C118.073 54.8543 117.599 53.0776 117.244 52.3077C117.126 52.3077 117.066 52.3077 116.948 52.3077C116 52.2484 114.52 52.13 112.328 51.5377C109.367 54.1436 103.385 55.3874 95.153 56.9272C92.1326 57.4602 87.8684 58.2894 85.6771 59.0593C85.9732 59.237 86.3285 59.4146 86.7431 59.6515C87.1577 59.8292 87.4538 60.1253 87.6907 60.5399C88.2237 61.3691 88.283 62.3167 87.8684 63.205C87.1577 64.6857 85.6178 64.8633 84.2557 65.041C84.1964 65.041 84.078 65.041 83.9595 65.1002C84.1964 65.8109 84.1372 66.4624 84.078 66.877C83.9003 67.5877 83.545 68.1207 83.0712 68.5353C84.3741 69.1275 85.3217 70.1936 85.7955 71.4965C86.5062 73.5102 85.8547 75.7015 84.1964 77.0045C82.7158 78.189 80.7614 78.3666 78.8662 77.5967C77.1487 79.1366 75.3127 78.5443 74.069 77.8336C72.766 77.4783 71.8184 76.5307 71.0485 75.82L70.9893 75.7607C70.6931 75.9976 70.397 76.1161 70.0417 76.2345C68.8572 76.5307 67.7911 76.2345 66.7843 75.9976C66.4882 75.9384 66.0144 75.82 65.7183 75.7607C65.5406 76.1161 65.3037 76.4714 65.0076 76.7083C61.5133 79.4327 57.486 77.0637 53.9917 74.9316C48.9576 71.9111 46.2925 70.7858 43.4497 73.5102C43.0943 73.8655 42.6205 74.1024 42.0875 74.1617C41.436 74.2801 41.0215 74.6355 40.2515 75.4646C39.7185 75.9976 39.1263 76.6491 38.2379 77.1821C38.534 78.0705 38.7709 79.255 38.2379 80.3803C37.8825 81.1502 37.2903 81.7424 36.4611 82.0978C34.5659 83.1638 32.9669 82.0386 31.9008 80.9133C30.2425 84.4668 30.4202 85.9474 31.7231 89.5009C37.468 90.3301 38.001 94.4166 38.1194 96.6079C42.3836 93.4098 48.7207 92.6398 52.2742 95.305C53.3995 96.1341 56.7161 99.3323 52.748 105.432C52.6295 105.61 52.4519 105.847 52.2742 105.965C50.912 107.091 49.3129 107.387 47.9508 107.624C47.6546 107.683 47.2993 107.742 47.0032 107.801C47.0624 108.038 47.1808 108.394 47.4177 108.867C47.8915 109.874 47.6546 111 46.8255 111.769C46.4701 112.125 45.9963 112.362 45.5225 112.421C46.5294 114.138 48.01 116.152 48.8391 116.863C49.1353 116.922 49.3722 116.981 49.6091 117.1C49.7275 117.159 49.7867 117.218 49.9052 117.218C50.7343 117.574 52.215 118.284 52.748 119.943C52.8072 120.12 52.8664 120.298 52.8664 120.535C53.9325 120.239 55.2354 120.12 56.5976 120.476C57.7821 120.772 58.9074 121.305 59.9734 122.193C59.9734 122.015 60.0327 121.838 60.0327 121.601C60.921 112.776 61.691 104.485 67.3766 102.353C71.4631 100.813 76.7341 103.182 83.9595 109.874L84.0188 109.934C87.6907 113.665 89.882 113.309 92.4287 112.895C98.6473 111.829 101.964 113.546 105.577 125.687Z" fill="url(#paint0_linear_6597_5361)"/>
<defs>
<linearGradient id="paint0_linear_6597_5361" x1="15.6173" y1="127.373" x2="93.0532" y2="10.2941" gradientUnits="userSpaceOnUse">
<stop stop-color="#E36333"/>
<stop offset="0.583849" stop-color="#B73B62"/>
<stop offset="1" stop-color="#812775"/>
</linearGradient>
</defs>
</svg>
