<svg width="170" height="170" viewBox="0 0 170 170" fill="none" xmlns="http://www.w3.org/2000/svg">
<circle cx="85" cy="85" r="85" fill="#9F248F"/>
<path fill-rule="evenodd" clip-rule="evenodd" d="M84.9993 58.48C68.5046 58.48 55.133 71.7681 55.133 88.1599C55.133 104.552 68.5046 117.84 84.9993 117.84C101.494 117.84 114.866 104.552 114.866 88.1599C114.866 71.7681 101.494 58.48 84.9993 58.48ZM46.5998 88.1599C46.5998 67.0848 63.7918 50 84.9993 50C106.207 50 123.399 67.0848 123.399 88.1599C123.399 109.235 106.207 126.32 84.9993 126.32C63.7918 126.32 46.5998 109.235 46.5998 88.1599Z" fill="#FFFFFE"/>
<path fill-rule="evenodd" clip-rule="evenodd" d="M85 126.315C75.2628 126.315 65.6972 128.862 57.2648 133.701C48.8324 138.539 41.8303 145.498 36.9625 153.879C35.7845 155.907 33.1752 156.602 31.1344 155.431C29.0936 154.261 28.3941 151.668 29.5721 149.64C35.1888 139.97 43.2681 131.94 52.9979 126.357C62.7276 120.774 73.7648 117.835 85 117.835C96.2352 117.835 107.272 120.774 117.002 126.357C126.732 131.94 134.811 139.97 140.428 149.64C141.606 151.668 140.906 154.261 138.866 155.431C136.825 156.602 134.215 155.907 133.037 153.879C128.17 145.498 121.168 138.539 112.735 133.701C104.303 128.862 94.7372 126.315 85 126.315Z" fill="#FFFFFE"/>
</svg>
