<svg width="27" height="27" viewBox="0 0 27 27" fill="none" xmlns="http://www.w3.org/2000/svg">
<path fill-rule="evenodd" clip-rule="evenodd" d="M12.4867 3.61358C12.7432 3.46238 13.0355 3.38263 13.3332 3.38263C13.6309 3.38263 13.9232 3.46238 14.1796 3.61358C14.4359 3.76463 14.647 3.98148 14.7911 4.24162M14.7915 4.24242L17.8492 9.75465C17.8505 9.75647 17.8524 9.75784 17.8545 9.75854C17.8568 9.75932 17.8594 9.75923 17.8617 9.7583L23.13 7.41566L23.1328 7.41443C23.4172 7.28923 23.7308 7.24601 24.0384 7.28964C24.346 7.33327 24.6353 7.46201 24.8737 7.66133C25.112 7.86065 25.2898 8.12262 25.3872 8.41767C25.4842 8.71193 25.4974 9.0274 25.4251 9.32867L25.4245 9.33109L22.7679 20.6137C22.7149 20.8315 22.6188 21.0364 22.4853 21.2164C22.3518 21.3964 22.1836 21.5478 21.9906 21.6616C21.7976 21.7755 21.5837 21.8495 21.3616 21.8794C21.1395 21.9092 20.9136 21.8942 20.6974 21.8353L20.6941 21.8344C15.874 20.4998 10.7819 20.4998 5.96181 21.8344L5.95854 21.8353C5.74233 21.8942 5.5165 21.9092 5.29438 21.8794C5.07227 21.8495 4.8584 21.7755 4.66539 21.6616C4.47239 21.5478 4.30416 21.3964 4.17064 21.2164C4.03713 21.0364 3.94105 20.8315 3.88806 20.6137L3.88643 20.607L1.2419 9.33109L1.24114 9.32794C1.16905 9.02689 1.18222 8.71169 1.27921 8.41767C1.37654 8.12262 1.5544 7.86066 1.79272 7.66133C2.03104 7.46201 2.32033 7.33327 2.62793 7.28964C2.93554 7.24601 3.24922 7.28923 3.53356 7.41443L3.53636 7.41566L8.80442 9.75818C8.8067 9.75911 8.80953 9.75932 8.81188 9.75854C8.81401 9.75784 8.81584 9.75647 8.81713 9.75465L11.8753 4.24162C12.0194 3.98148 12.2305 3.76463 12.4867 3.61358M10.2654 10.5796C10.0599 10.9399 9.72817 11.2112 9.33431 11.3412C8.94045 11.4712 8.51239 11.4507 8.13279 11.2835L8.13002 11.2823L2.86198 8.93979L2.86327 8.94516L5.50767 20.2203L5.50924 20.2234L5.51113 20.2254L5.51231 20.2262L5.51622 20.2275L5.52004 20.2273C10.6303 18.8129 16.0288 18.8132 21.1389 20.2282L20.9165 21.0313L21.1356 20.2273L21.1397 20.2275L21.1437 20.2262L21.1467 20.2234L21.1479 20.2214L21.1483 20.2203L23.8033 8.94445L23.8044 8.93979L18.5364 11.2823L18.5336 11.2835C18.154 11.4507 17.7259 11.4712 17.3321 11.3412C16.9382 11.2112 16.6065 10.9399 16.401 10.5796L16.3961 10.571L13.3332 5.0493L10.2654 10.5796Z" fill="#FFFFFE"/>
<path fill-rule="evenodd" clip-rule="evenodd" d="M16.577 17.6723C14.4208 17.4391 12.2457 17.4391 10.0895 17.6723C9.63191 17.7217 9.22087 17.3909 9.1714 16.9333C9.12193 16.4758 9.45276 16.0647 9.91033 16.0152C12.1856 15.7692 14.4808 15.7692 16.7561 16.0152C17.2137 16.0647 17.5446 16.4758 17.4951 16.9333C17.4456 17.3909 17.0346 17.7217 16.577 17.6723Z" fill="#FFFFFE"/>
</svg>
