<svg width="24" height="24" viewBox="0 0 24 24" fill="none" xmlns="http://www.w3.org/2000/svg">
<path fill-rule="evenodd" clip-rule="evenodd" d="M1 6.27273C1 5.82086 1.3648 5.45455 1.81481 5.45455H4.16859C5.33433 5.45598 6.48294 5.73646 7.51915 6.27271C8.55525 6.80891 9.44913 7.58538 10.1267 8.53774V8.53774L14.3839 14.5102C14.9109 15.251 15.6067 15.8557 16.4126 16.2727C17.2184 16.6897 18.1115 16.9079 19.018 16.9091V16.9091H22.1852C22.6352 16.9091 23 17.2754 23 17.7273C23 18.1791 22.6352 18.5455 22.1852 18.5455H19.0166C17.8509 18.544 16.7022 18.2635 15.666 17.7273C14.63 17.1911 13.7361 16.4147 13.0586 15.4624V15.4624L8.80131 9.48984C8.2743 8.749 7.57853 8.14435 6.77259 7.72726C5.96679 7.31025 5.07361 7.0921 4.16709 7.09091H1.81481C1.3648 7.09091 1 6.7246 1 6.27273Z" fill="#1D2D8C"/>
<path fill-rule="evenodd" clip-rule="evenodd" d="M19.1646 3.23964C19.4828 2.92012 19.9987 2.92012 20.3169 3.23964L22.7613 5.69419C23.0796 6.01371 23.0796 6.53175 22.7613 6.85127L20.3169 9.30581C19.9987 9.62533 19.4828 9.62533 19.1646 9.30581C18.8464 8.98629 18.8464 8.46825 19.1646 8.14873L21.0329 6.27273L19.1646 4.39672C18.8464 4.0772 18.8464 3.55916 19.1646 3.23964Z" fill="#1D2D8C"/>
<path fill-rule="evenodd" clip-rule="evenodd" d="M19.1646 14.6942C19.4828 14.3747 19.9987 14.3747 20.3169 14.6942L22.7613 17.1487C23.0796 17.4683 23.0796 17.9863 22.7613 18.3058L20.3169 20.7604C19.9987 21.0799 19.4828 21.0799 19.1646 20.7604C18.8464 20.4408 18.8464 19.9228 19.1646 19.6033L21.0329 17.7273L19.1646 15.8513C18.8464 15.5317 18.8464 15.0137 19.1646 14.6942Z" fill="#1D2D8C"/>
<path fill-rule="evenodd" clip-rule="evenodd" d="M19.0166 5.45455L19.0176 5.45455L22.1852 5.45455C22.6352 5.45455 23 5.82086 23 6.27273C23 6.7246 22.6352 7.09091 22.1852 7.09091H19.0181C18.1116 7.0921 17.2184 7.31025 16.4126 7.72726C15.6073 8.14401 14.9125 8.74738 14.3856 9.48741L14.2647 9.65933C14.0052 10.0285 13.4968 10.1165 13.1292 9.85593C12.7615 9.59534 12.6739 9.08483 12.9334 8.71567L13.0582 8.53806C13.7358 7.58555 14.6298 6.80897 15.666 6.27271C16.7022 5.73646 17.8508 5.45598 19.0166 5.45455Z" fill="#1D2D8C"/>
<path fill-rule="evenodd" clip-rule="evenodd" d="M10.056 14.144C10.4236 14.4046 10.5113 14.9151 10.2518 15.2843L10.1296 15.4582L10.1269 15.4619C9.44934 16.4144 8.55537 17.191 7.51915 17.7273C6.48294 18.2635 5.33433 18.544 4.16859 18.5454H1.81481C1.3648 18.5454 1 18.1791 1 17.7272C1 17.2754 1.3648 16.9091 1.81481 16.9091H4.16705C5.07358 16.9079 5.96678 16.6897 6.77259 16.2727C7.57788 15.856 8.27272 15.2526 8.79958 14.5125L8.92044 14.3406C9.17995 13.9715 9.68836 13.8835 10.056 14.144Z" fill="#1D2D8C"/>
</svg>
