<svg width="24" height="24" viewBox="0 0 24 24" fill="none" xmlns="http://www.w3.org/2000/svg">
<path fill-rule="evenodd" clip-rule="evenodd" d="M11.1238 1.77058C11.3807 1.59066 11.6868 1.49414 12.0004 1.49414C12.3141 1.49414 12.6201 1.59066 12.877 1.77058C13.1305 1.94807 13.324 2.19825 13.4321 2.48793L15.4912 7.67322L15.4974 7.68924C15.4993 7.69436 15.5026 7.69882 15.507 7.70207C15.5114 7.70532 15.5166 7.70722 15.5221 7.70754L15.5267 7.70781L21.058 8.06407C22.4938 8.15731 22.9845 9.95469 21.9395 10.8234L21.939 10.8239L17.7027 14.3572L17.7002 14.3593C17.6907 14.3672 17.6836 14.3776 17.6797 14.3893C17.6759 14.4007 17.6754 14.413 17.6781 14.4247L17.6783 14.4257L19.046 19.8026C19.3772 21.1098 17.9657 22.287 16.7378 21.5125L16.7359 21.5113L12.0109 18.5113C12.0079 18.5094 12.004 18.5081 12.0004 18.5081C11.9969 18.5081 11.9934 18.5091 11.9904 18.511L11.9892 18.5118L7.5937 21.2953L7.59301 21.2957C6.24601 22.1521 4.69024 20.8501 5.05797 19.4088L6.32249 14.4257L6.3227 14.4248C6.32544 14.4131 6.3249 14.4008 6.32112 14.3893C6.31725 14.3776 6.31014 14.3672 6.30062 14.3593L6.29815 14.3572L2.06187 10.8239L2.06126 10.8234C1.0163 9.95466 1.50661 8.15734 2.94244 8.0641L8.47873 7.70752C8.48418 7.70721 8.48943 7.70532 8.49382 7.70207C8.49821 7.69882 8.50156 7.69436 8.50346 7.68924L8.50962 7.67322L10.5688 2.48793C10.6769 2.19825 10.8704 1.94807 11.1238 1.77058ZM12.8154 17.2453L17.538 20.2438C17.5466 20.2491 17.5522 20.2512 17.5537 20.2517C17.5557 20.2513 17.5622 20.2495 17.5711 20.2427C17.5824 20.2341 17.5897 20.2234 17.593 20.2146C17.5944 20.2107 17.5954 20.2064 17.5957 20.2011C17.596 20.196 17.5959 20.1865 17.5922 20.1718L16.2225 14.7869C16.1514 14.5006 16.1627 14.2 16.2551 13.9198C16.3472 13.6402 16.5163 13.3922 16.743 13.2044L16.7444 13.2033L20.9806 9.66993C20.9894 9.66264 20.9931 9.65742 20.9947 9.65491C20.9964 9.65216 20.9979 9.64894 20.9991 9.64449C21.0018 9.63438 21.0027 9.61694 20.9965 9.59679C20.9902 9.57669 20.981 9.56693 20.9783 9.56463L20.9768 9.56361C20.9768 9.56361 20.9724 9.5617 20.9614 9.56096L15.435 9.20501L15.4323 9.20485C15.1369 9.18714 14.8529 9.08402 14.615 8.90799C14.379 8.73343 14.1983 8.49463 14.0945 8.22021L12.0346 3.03308C12.0319 3.02631 12.0293 3.0195 12.0268 3.01265C12.0249 3.00723 12.0213 3.00254 12.0165 2.99923C12.0118 2.99592 12.0062 2.99414 12.0004 2.99414C11.9946 2.99414 11.989 2.99592 11.9843 2.99923C11.9796 3.00254 11.976 3.00723 11.974 3.01265C11.9715 3.0195 11.9689 3.02631 11.9662 3.03308L9.90634 8.22021C9.80252 8.49463 9.62186 8.73343 9.38587 8.90799C9.14791 9.08402 8.86396 9.18714 8.56853 9.20485L3.03964 9.56095C3.02872 9.56168 3.02413 9.56359 3.02413 9.56359L3.02255 9.56463C3.01983 9.56693 3.0106 9.57669 3.00438 9.59679C2.99814 9.61694 2.99908 9.63438 3.00174 9.64449C3.00291 9.64894 3.00441 9.65216 3.00615 9.65492C3.00773 9.65742 3.01144 9.66264 3.02022 9.66993L3.02143 9.67094L7.25647 13.2033L7.25794 13.2045C7.48455 13.3923 7.65363 13.6403 7.74576 13.9198C7.83809 14.2 7.84939 14.5006 7.77834 14.7869L7.77738 14.7907L6.51144 19.7795C6.48434 19.8855 6.52172 19.9677 6.59023 20.0197C6.62529 20.0464 6.6607 20.0578 6.68869 20.0598C6.71184 20.0614 6.74389 20.0581 6.78838 20.0298L11.1855 17.2453L11.1867 17.2445C11.43 17.0901 11.7122 17.0081 12.0004 17.0081C12.2889 17.0081 12.5719 17.0905 12.8154 17.2453Z" fill="#9F248F"/>
</svg>
