<svg width="24" height="24" viewBox="0 0 24 24" fill="none" xmlns="http://www.w3.org/2000/svg">
<path fill-rule="evenodd" clip-rule="evenodd" d="M18.5639 2.07822C18.8308 2.2073 19 2.47544 19 2.76924V21.2308C19 21.5246 18.8308 21.7927 18.5639 21.9218C18.2971 22.0509 17.9792 22.0183 17.7447 21.838L10.9554 16.6154H6.55556C6.143 16.6154 5.74734 16.4533 5.45561 16.1648C5.16389 15.8763 5 15.4849 5 15.0769V8.92308C5 8.51505 5.16389 8.12374 5.45561 7.83522C5.74733 7.54671 6.143 7.38462 6.55556 7.38462H10.9554L17.7447 2.16204C17.9792 1.98167 18.2971 1.94915 18.5639 2.07822ZM17.4444 4.34204L11.6997 8.76104C11.5632 8.86606 11.3952 8.92308 11.2222 8.92308H6.55556V15.0769H11.2222C11.3952 15.0769 11.5632 15.1339 11.6997 15.239L17.4444 19.658V4.34204Z" fill="url(#paint0_linear_8050_4983)"/>
<path fill-rule="evenodd" clip-rule="evenodd" d="M11.2222 7.38461C11.6518 7.38461 12 7.72901 12 8.15384V15.8461C12 16.271 11.6518 16.6154 11.2222 16.6154C10.7927 16.6154 10.4444 16.271 10.4444 15.8461V8.15384C10.4444 7.72901 10.7927 7.38461 11.2222 7.38461Z" fill="url(#paint1_linear_8050_4983)"/>
<defs>
<linearGradient id="paint0_linear_8050_4983" x1="5" y1="2" x2="23.5859" y2="8.67396" gradientUnits="userSpaceOnUse">
<stop offset="0.229167" stop-color="#1ABBFF"/>
<stop offset="0.46875" stop-color="#47B4F1"/>
<stop offset="0.666667" stop-color="#40B5F4"/>
</linearGradient>
<linearGradient id="paint1_linear_8050_4983" x1="5" y1="2" x2="23.5859" y2="8.67396" gradientUnits="userSpaceOnUse">
<stop offset="0.229167" stop-color="#1ABBFF"/>
<stop offset="0.46875" stop-color="#47B4F1"/>
<stop offset="0.666667" stop-color="#40B5F4"/>
</linearGradient>
</defs>
</svg>
