<svg width="32" height="32" viewBox="0 0 32 32" fill="none" xmlns="http://www.w3.org/2000/svg">
<circle cx="16" cy="16" r="16" fill="#DA2A55"/>
<path fill-rule="evenodd" clip-rule="evenodd" d="M15.1527 7.61358C15.4092 7.46238 15.7015 7.38263 15.9992 7.38263C16.2969 7.38263 16.5892 7.46238 16.8457 7.61358C17.1019 7.76463 17.313 7.98148 17.4571 8.24162M17.4575 8.24242L20.5153 13.7546C20.5165 13.7565 20.5184 13.7578 20.5205 13.7585C20.5229 13.7593 20.5254 13.7592 20.5277 13.7583L25.796 11.4157L25.7988 11.4144C26.0832 11.2892 26.3969 11.246 26.7045 11.2896C27.0121 11.3333 27.3014 11.462 27.5397 11.6613C27.778 11.8607 27.9559 12.1226 28.0532 12.4177C28.1503 12.7119 28.1634 13.0274 28.0911 13.3287L28.0905 13.3311L25.4339 24.6137C25.381 24.8315 25.2848 25.0364 25.1513 25.2164C25.0178 25.3964 24.8496 25.5478 24.6566 25.6616C24.4636 25.7755 24.2497 25.8495 24.0276 25.8794C23.8055 25.9092 23.5796 25.8942 23.3634 25.8353L23.3602 25.8344C18.5401 24.4998 13.4479 24.4998 8.62783 25.8344L8.62455 25.8353C8.40834 25.8942 8.18251 25.9092 7.9604 25.8794C7.73829 25.8495 7.52441 25.7755 7.33141 25.6616C7.1384 25.5478 6.97017 25.3964 6.83666 25.2164C6.70315 25.0364 6.60706 24.8315 6.55408 24.6137L6.55244 24.607L3.90791 13.3311L3.90716 13.3279C3.83506 13.0269 3.84823 12.7117 3.94522 12.4177C4.04255 12.1226 4.22042 11.8607 4.45874 11.6613C4.69706 11.462 4.98634 11.3333 5.29395 11.2896C5.60156 11.246 5.91523 11.2892 6.19958 11.4144L6.20238 11.4157L11.4704 13.7582C11.4727 13.7591 11.4755 13.7593 11.4779 13.7585C11.48 13.7578 11.4819 13.7565 11.4831 13.7547L14.5413 8.24162C14.6854 7.98148 14.8965 7.76463 15.1527 7.61358M12.9314 14.5796C12.726 14.9399 12.3942 15.2112 12.0003 15.3412C11.6065 15.4712 11.1784 15.4507 10.7988 15.2835L10.796 15.2823L5.52799 12.9398L5.52929 12.9452L8.17368 24.2203L8.17525 24.2234L8.17715 24.2254L8.17832 24.2262L8.18223 24.2275L8.18605 24.2273C13.2963 22.8129 18.6948 22.8132 23.8049 24.2282L23.5825 25.0313L23.8016 24.2273L23.8058 24.2275L23.8097 24.2262L23.8127 24.2234L23.8139 24.2214L23.8143 24.2203L26.4693 12.9445L26.4704 12.9398L21.2024 15.2823L21.1996 15.2835C20.82 15.4507 20.3919 15.4712 19.9981 15.3412C19.6042 15.2112 19.2725 14.9399 19.067 14.5796L19.0621 14.571L15.9992 9.0493L12.9314 14.5796Z" fill="#FFFFFE"/>
<path fill-rule="evenodd" clip-rule="evenodd" d="M19.243 21.6723C17.0868 21.4391 14.9117 21.4391 12.7555 21.6723C12.2979 21.7217 11.8869 21.3909 11.8374 20.9333C11.7879 20.4758 12.1188 20.0647 12.5763 20.0152C14.8517 19.7692 17.1469 19.7692 19.4222 20.0152C19.8797 20.0647 20.2106 20.4758 20.1611 20.9333C20.1116 21.3909 19.7006 21.7217 19.243 21.6723Z" fill="#FFFFFE"/>
</svg>
