<svg width="208" height="180" viewBox="0 0 208 180" fill="none" xmlns="http://www.w3.org/2000/svg">
<path d="M166.511 130.7H41.5467C40.1253 130.7 39 129.575 39 128.153C39 126.732 40.1253 125.607 41.5467 125.607H166.511C167.933 125.607 169.058 126.732 169.058 128.153C169.058 129.575 167.873 130.7 166.511 130.7Z" fill="url(#paint0_linear_6597_5352)"/>
<path d="M55.7029 144.855C54.2815 144.855 53.1562 143.73 53.1562 142.309V56.6693C53.1562 55.2479 54.2815 54.1227 55.7029 54.1227C57.1243 54.1227 58.2496 55.2479 58.2496 56.6693V142.309C58.1904 143.73 57.0651 144.855 55.7029 144.855Z" fill="url(#paint1_linear_6597_5352)"/>
<path d="M84.4848 130.759H68.8494C67.428 130.759 66.3027 129.634 66.3027 128.213V88.0582C66.3027 86.6368 67.428 85.5116 68.8494 85.5116H84.4848C85.9062 85.5116 87.0315 86.6368 87.0315 88.0582V128.213C86.9722 129.634 85.847 130.759 84.4848 130.759ZM71.3369 125.725H81.9381V90.6049H71.3369V125.725Z" fill="url(#paint2_linear_6597_5352)"/>
<path d="M112.971 130.759H97.3357C95.9143 130.759 94.7891 129.634 94.7891 128.213V66.8557C94.7891 65.4343 95.9143 64.309 97.3357 64.309H112.971C114.393 64.309 115.518 65.4343 115.518 66.8557V128.272C115.518 129.634 114.393 130.759 112.971 130.759ZM99.8824 125.725H110.484V69.3431H99.8824V125.725Z" fill="url(#paint3_linear_6597_5352)"/>
<path d="M141.518 130.76H125.883C124.461 130.76 123.336 129.635 123.336 128.213V38.5467C123.336 37.1253 124.461 36 125.883 36H141.518C142.939 36 144.065 37.1253 144.065 38.5467V128.272C144.005 129.635 142.88 130.76 141.518 130.76ZM128.429 125.726H139.031V41.0341H128.429V125.726Z" fill="url(#paint4_linear_6597_5352)"/>
<defs>
<linearGradient id="paint0_linear_6597_5352" x1="30.356" y1="130.296" x2="30.799" y2="120.618" gradientUnits="userSpaceOnUse">
<stop stop-color="#E36333"/>
<stop offset="0.583849" stop-color="#B73B62"/>
<stop offset="1" stop-color="#812775"/>
</linearGradient>
<linearGradient id="paint1_linear_6597_5352" x1="52.8177" y1="137.649" x2="61.0948" y2="137.252" gradientUnits="userSpaceOnUse">
<stop stop-color="#E36333"/>
<stop offset="0.583849" stop-color="#B73B62"/>
<stop offset="1" stop-color="#812775"/>
</linearGradient>
<linearGradient id="paint2_linear_6597_5352" x1="64.9251" y1="127.166" x2="94.1929" y2="115.695" gradientUnits="userSpaceOnUse">
<stop stop-color="#E36333"/>
<stop offset="0.583849" stop-color="#B73B62"/>
<stop offset="1" stop-color="#812775"/>
</linearGradient>
<linearGradient id="paint3_linear_6597_5352" x1="93.4114" y1="125.482" x2="124.93" y2="117.07" gradientUnits="userSpaceOnUse">
<stop stop-color="#E36333"/>
<stop offset="0.583849" stop-color="#B73B62"/>
<stop offset="1" stop-color="#812775"/>
</linearGradient>
<linearGradient id="paint4_linear_6597_5352" x1="121.958" y1="123.234" x2="154.579" y2="117.129" gradientUnits="userSpaceOnUse">
<stop stop-color="#E36333"/>
<stop offset="0.583849" stop-color="#B73B62"/>
<stop offset="1" stop-color="#812775"/>
</linearGradient>
</defs>
</svg>
