<svg width="208" height="180" viewBox="0 0 208 180" fill="none" xmlns="http://www.w3.org/2000/svg">
<path d="M119.664 122.639H54.9315C46.1662 122.639 39 115.473 39 106.708V67.0863C39 58.321 46.1662 51.2141 54.9315 51.2141H119.664V56.2482H54.9315C48.9498 56.2482 44.0341 61.1046 44.0341 67.1456V106.708C44.0341 112.69 48.8906 117.605 54.9315 117.605H119.664V122.639Z" fill="url(#paint0_linear_6597_5292)"/>
<path d="M97.0979 143.901H81.1072C79.6858 143.901 78.5605 142.775 78.5605 141.354V120.092C78.5605 118.671 79.6858 117.546 81.1072 117.546H97.0387C98.4601 117.546 99.5854 118.671 99.5854 120.092V141.354C99.5854 142.775 98.4601 143.901 97.0979 143.901ZM83.6539 138.867H94.5513V122.639H83.6539V138.867Z" fill="url(#paint1_linear_6597_5292)"/>
<path d="M108.768 143.9H69.1463C67.7249 143.9 66.5996 142.775 66.5996 141.353C66.5996 139.932 67.7249 138.807 69.1463 138.807H108.768C110.189 138.807 111.314 139.932 111.314 141.353C111.314 142.775 110.189 143.9 108.768 143.9Z" fill="url(#paint2_linear_6597_5292)"/>
<path d="M157.57 143.249H127.839C121.916 143.249 117.119 138.452 117.119 132.53V47.7195C117.119 41.797 121.916 36.9998 127.839 36.9998H157.57C163.492 36.9998 168.289 41.797 168.289 47.7195V132.53C168.289 138.452 163.492 143.249 157.57 143.249ZM127.839 42.0339C124.7 42.0339 122.153 44.5806 122.153 47.7195V132.53C122.153 135.669 124.7 138.215 127.839 138.215H157.57C160.709 138.215 163.255 135.669 163.255 132.53V47.7195C163.255 44.5806 160.709 42.0339 157.57 42.0339H127.839Z" fill="url(#paint3_linear_6597_5292)"/>
<path d="M165.8 70.2249H119.664V75.259H165.8V70.2249Z" fill="url(#paint4_linear_6597_5292)"/>
<path d="M165.8 104.931H119.664V109.965H165.8V104.931Z" fill="url(#paint5_linear_6597_5292)"/>
<path d="M154.132 129.628C155.898 129.628 157.33 128.196 157.33 126.429C157.33 124.663 155.898 123.231 154.132 123.231C152.365 123.231 150.934 124.663 150.934 126.429C150.934 128.196 152.365 129.628 154.132 129.628Z" fill="url(#paint6_linear_6597_5292)"/>
<path d="M99.7634 70.521H52.8572C51.4358 70.521 50.3105 69.3957 50.3105 67.9743C50.3105 66.5529 51.4358 65.4276 52.8572 65.4276H99.7041C101.126 65.4276 102.251 66.5529 102.251 67.9743C102.251 69.3957 101.126 70.521 99.7634 70.521Z" fill="url(#paint7_linear_6597_5292)"/>
<path d="M74.119 81.2409H52.8572C51.4358 81.2409 50.3105 80.1157 50.3105 78.6943C50.3105 77.2729 51.4358 76.1476 52.8572 76.1476H74.119C75.5404 76.1476 76.6656 77.2729 76.6656 78.6943C76.6656 80.1157 75.4811 81.2409 74.119 81.2409Z" fill="url(#paint8_linear_6597_5292)"/>
<path d="M83.0619 91.9602H52.8572C51.4358 91.9602 50.3105 90.8349 50.3105 89.4135C50.3105 87.9921 51.4358 86.8668 52.8572 86.8668H83.0619C84.4833 86.8668 85.6086 87.9921 85.6086 89.4135C85.6086 90.8349 84.4241 91.9602 83.0619 91.9602Z" fill="url(#paint9_linear_6597_5292)"/>
<defs>
<linearGradient id="paint0_linear_6597_5292" x1="33.6389" y1="116.967" x2="101.593" y2="51.3114" gradientUnits="userSpaceOnUse">
<stop stop-color="#E36333"/>
<stop offset="0.583849" stop-color="#B73B62"/>
<stop offset="1" stop-color="#812775"/>
</linearGradient>
<linearGradient id="paint1_linear_6597_5292" x1="77.1632" y1="141.808" x2="100.527" y2="125.862" gradientUnits="userSpaceOnUse">
<stop stop-color="#E36333"/>
<stop offset="0.583849" stop-color="#B73B62"/>
<stop offset="1" stop-color="#812775"/>
</linearGradient>
<linearGradient id="paint2_linear_6597_5292" x1="63.6278" y1="143.496" x2="64.8964" y2="133.967" gradientUnits="userSpaceOnUse">
<stop stop-color="#E36333"/>
<stop offset="0.583849" stop-color="#B73B62"/>
<stop offset="1" stop-color="#812775"/>
</linearGradient>
<linearGradient id="paint3_linear_6597_5292" x1="113.718" y1="134.811" x2="184.97" y2="105.454" gradientUnits="userSpaceOnUse">
<stop stop-color="#E36333"/>
<stop offset="0.583849" stop-color="#B73B62"/>
<stop offset="1" stop-color="#812775"/>
</linearGradient>
<linearGradient id="paint4_linear_6597_5292" x1="116.598" y1="74.8592" x2="117.801" y2="65.428" gradientUnits="userSpaceOnUse">
<stop stop-color="#E36333"/>
<stop offset="0.583849" stop-color="#B73B62"/>
<stop offset="1" stop-color="#812775"/>
</linearGradient>
<linearGradient id="paint5_linear_6597_5292" x1="116.598" y1="109.565" x2="117.801" y2="100.134" gradientUnits="userSpaceOnUse">
<stop stop-color="#E36333"/>
<stop offset="0.583849" stop-color="#B73B62"/>
<stop offset="1" stop-color="#812775"/>
</linearGradient>
<linearGradient id="paint6_linear_6597_5292" x1="150.508" y1="129.12" x2="156.524" y2="123.973" gradientUnits="userSpaceOnUse">
<stop stop-color="#E36333"/>
<stop offset="0.583849" stop-color="#B73B62"/>
<stop offset="1" stop-color="#812775"/>
</linearGradient>
<linearGradient id="paint7_linear_6597_5292" x1="46.8585" y1="70.1164" x2="47.9556" y2="60.5448" gradientUnits="userSpaceOnUse">
<stop stop-color="#E36333"/>
<stop offset="0.583849" stop-color="#B73B62"/>
<stop offset="1" stop-color="#812775"/>
</linearGradient>
<linearGradient id="paint8_linear_6597_5292" x1="48.5589" y1="80.8364" x2="50.6432" y2="71.6099" gradientUnits="userSpaceOnUse">
<stop stop-color="#E36333"/>
<stop offset="0.583849" stop-color="#B73B62"/>
<stop offset="1" stop-color="#812775"/>
</linearGradient>
<linearGradient id="paint9_linear_6597_5292" x1="47.9646" y1="91.5556" x2="49.5549" y2="82.1265" gradientUnits="userSpaceOnUse">
<stop stop-color="#E36333"/>
<stop offset="0.583849" stop-color="#B73B62"/>
<stop offset="1" stop-color="#812775"/>
</linearGradient>
</defs>
</svg>
