<svg width="208" height="180" viewBox="0 0 208 180" fill="none" xmlns="http://www.w3.org/2000/svg">
<path d="M103.772 147.844H59.3529C49.7585 147.844 42 140.085 42 130.491V65.4619C42 55.8675 49.7585 48.109 59.3529 48.109H103.772C105.193 48.109 106.318 49.2343 106.318 50.6557V145.416C106.318 146.719 105.193 147.844 103.772 147.844ZM59.3529 53.1432C52.542 53.1432 47.0341 58.6511 47.0341 65.4619V130.55C47.0341 137.361 52.542 142.869 59.3529 142.869H101.284V53.1432H59.3529Z" fill="url(#paint0_linear_6597_5386)"/>
<path d="M154.233 147.843H103.773C102.352 147.843 101.227 146.718 101.227 145.297V143.757C101.227 143.046 101.523 142.336 102.115 141.862C116.803 129.306 135.459 123.798 151.686 127.115V50.5961C151.686 49.1747 152.811 48.0494 154.233 48.0494C160.511 48.0494 165.604 53.1428 165.604 59.4206V136.532C165.604 142.809 160.511 147.843 154.233 147.843ZM108.985 142.809H154.233C157.727 142.809 160.511 139.967 160.511 136.532V59.4206C160.511 56.8147 158.971 54.6234 156.72 53.6758V130.313C156.72 131.083 156.365 131.853 155.714 132.327C155.062 132.8 154.292 132.978 153.522 132.741C139.486 128.714 122.784 132.623 108.985 142.809Z" fill="url(#paint1_linear_6597_5386)"/>
<path d="M103.773 146.245C103.418 146.245 103.063 146.185 102.707 146.008C101.819 145.593 101.227 144.705 101.227 143.698V50.5964C101.227 49.8857 101.523 49.175 102.115 48.7012C117.81 35.3164 138.005 29.9269 154.944 34.7241C156.01 35.0202 156.78 36.0271 156.78 37.1523V130.254C156.78 131.024 156.424 131.794 155.773 132.268C155.121 132.741 154.351 132.919 153.581 132.682C138.301 128.359 119.823 133.274 105.432 145.652C104.958 146.067 104.365 146.245 103.773 146.245ZM106.32 51.7809V138.545C120.238 128.359 136.998 124.095 151.745 127.115V39.1068C137.117 35.7309 120.001 40.4689 106.32 51.7809Z" fill="url(#paint2_linear_6597_5386)"/>
<path d="M88.9087 69.0748H57.8748C56.4534 69.0748 55.3281 67.9495 55.3281 66.5281C55.3281 65.1067 56.4534 63.9814 57.8748 63.9814H88.9679C90.3893 63.9814 91.5146 65.1067 91.5146 66.5281C91.5146 67.9495 90.3301 69.0748 88.9087 69.0748Z" fill="url(#paint3_linear_6597_5386)"/>
<path d="M70.2528 81.038H57.8748C56.4534 81.038 55.3281 79.9127 55.3281 78.4913C55.3281 77.0699 56.4534 75.9447 57.8748 75.9447H70.2528C71.6742 75.9447 72.7995 77.0699 72.7995 78.4913C72.7995 79.9127 71.615 81.038 70.2528 81.038Z" fill="url(#paint4_linear_6597_5386)"/>
<path d="M80.3803 93.0013H57.8748C56.4534 93.0013 55.3281 91.876 55.3281 90.4546C55.3281 89.0332 56.4534 87.908 57.8748 87.908H80.4395C81.8609 87.908 82.9862 89.0332 82.9862 90.4546C82.9862 91.876 81.8017 93.0013 80.3803 93.0013Z" fill="url(#paint5_linear_6597_5386)"/>
<path d="M76.5307 104.965H57.8748C56.4534 104.965 55.3281 103.84 55.3281 102.418C55.3281 100.997 56.4534 99.8716 57.8748 99.8716H76.5899C78.0113 99.8716 79.1366 100.997 79.1366 102.418C79.1366 103.84 77.9521 104.965 76.5307 104.965Z" fill="url(#paint6_linear_6597_5386)"/>
<path d="M61.96 116.928H57.8143C56.3929 116.928 55.2676 115.803 55.2676 114.382C55.2676 112.96 56.3929 111.835 57.8143 111.835H61.96C63.3814 111.835 64.5067 112.96 64.5067 114.382C64.5067 115.803 63.3814 116.928 61.96 116.928Z" fill="url(#paint7_linear_6597_5386)"/>
<defs>
<linearGradient id="paint0_linear_6597_5386" x1="37.7253" y1="139.923" x2="118.041" y2="95.6114" gradientUnits="userSpaceOnUse">
<stop stop-color="#E36333"/>
<stop offset="0.583849" stop-color="#B73B62"/>
<stop offset="1" stop-color="#812775"/>
</linearGradient>
<linearGradient id="paint1_linear_6597_5386" x1="96.9479" y1="139.918" x2="177.326" y2="95.5578" gradientUnits="userSpaceOnUse">
<stop stop-color="#E36333"/>
<stop offset="0.583849" stop-color="#B73B62"/>
<stop offset="1" stop-color="#812775"/>
</linearGradient>
<linearGradient id="paint2_linear_6597_5386" x1="97.5344" y1="137.251" x2="174.47" y2="104.963" gradientUnits="userSpaceOnUse">
<stop stop-color="#E36333"/>
<stop offset="0.583849" stop-color="#B73B62"/>
<stop offset="1" stop-color="#812775"/>
</linearGradient>
<linearGradient id="paint3_linear_6597_5386" x1="52.9231" y1="68.6702" x2="54.4765" y2="59.2284" gradientUnits="userSpaceOnUse">
<stop stop-color="#E36333"/>
<stop offset="0.583849" stop-color="#B73B62"/>
<stop offset="1" stop-color="#812775"/>
</linearGradient>
<linearGradient id="paint4_linear_6597_5386" x1="54.1669" y1="80.6335" x2="57.1276" y2="71.945" gradientUnits="userSpaceOnUse">
<stop stop-color="#E36333"/>
<stop offset="0.583849" stop-color="#B73B62"/>
<stop offset="1" stop-color="#812775"/>
</linearGradient>
<linearGradient id="paint5_linear_6597_5386" x1="53.4899" y1="92.5968" x2="55.4849" y2="83.3288" gradientUnits="userSpaceOnUse">
<stop stop-color="#E36333"/>
<stop offset="0.583849" stop-color="#B73B62"/>
<stop offset="1" stop-color="#812775"/>
</linearGradient>
<linearGradient id="paint6_linear_6597_5386" x1="53.7458" y1="104.56" x2="56.028" y2="95.4337" gradientUnits="userSpaceOnUse">
<stop stop-color="#E36333"/>
<stop offset="0.583849" stop-color="#B73B62"/>
<stop offset="1" stop-color="#812775"/>
</linearGradient>
<linearGradient id="paint7_linear_6597_5386" x1="54.6535" y1="116.524" x2="59.069" y2="109.672" gradientUnits="userSpaceOnUse">
<stop stop-color="#E36333"/>
<stop offset="0.583849" stop-color="#B73B62"/>
<stop offset="1" stop-color="#812775"/>
</linearGradient>
</defs>
</svg>
