<svg width="38" height="38" viewBox="0 0 38 38" fill="none" xmlns="http://www.w3.org/2000/svg">
<circle cx="19" cy="19" r="19" fill="#9F248F"/>
<path fill-rule="evenodd" clip-rule="evenodd" d="M19 11C15.134 11 12 14.134 12 18C12 21.866 15.134 25 19 25C22.866 25 26 21.866 26 18C26 14.134 22.866 11 19 11ZM10 18C10 13.0294 14.0294 9 19 9C23.9706 9 28 13.0294 28 18C28 22.9706 23.9706 27 19 27C14.0294 27 10 22.9706 10 18Z" fill="#F6F6F6"/>
<path fill-rule="evenodd" clip-rule="evenodd" d="M19.0002 26.9988C16.718 26.9988 14.476 27.5996 12.4996 28.7407C10.5233 29.8819 8.88215 31.5233 7.74124 33.4998C7.46514 33.9781 6.85356 34.1421 6.37525 33.866C5.89693 33.5899 5.733 32.9783 6.0091 32.5C7.32553 30.2194 9.21914 28.3255 11.4996 27.0087C13.78 25.692 16.3669 24.9988 19.0002 24.9988C21.6335 24.9988 24.2203 25.692 26.5008 27.0087C28.7812 28.3255 30.6748 30.2194 31.9912 32.5C32.2673 32.9783 32.1034 33.5899 31.6251 33.866C31.1468 34.1421 30.5352 33.9781 30.2591 33.4998C29.1182 31.5233 27.4771 29.8819 25.5007 28.7407C23.5243 27.5996 21.2823 26.9988 19.0002 26.9988Z" fill="#F6F6F6"/>
</svg>
