<svg width="101" height="30" viewBox="0 0 101 30" fill="none" xmlns="http://www.w3.org/2000/svg">
<mask id="mask0_6234_2187" style="mask-type:luminance" maskUnits="userSpaceOnUse" x="0" y="0" width="101" height="30">
<path d="M100.718 0H0V29.2089H100.718V0Z" fill="white"/>
</mask>
<g mask="url(#mask0_6234_2187)">
<mask id="mask1_6234_2187" style="mask-type:luminance" maskUnits="userSpaceOnUse" x="0" y="0" width="101" height="30">
<path d="M100.718 0H0V29.2089H100.718V0Z" fill="white"/>
</mask>
<g mask="url(#mask1_6234_2187)">
<path d="M49.5904 8.6835V9.77159C48.5489 8.90789 47.2068 8.40407 45.6995 8.40407C42.0839 8.40407 39.1795 11.4693 39.1795 15.4533C39.1795 17.295 39.8357 18.9631 40.8772 20.1909C42.0542 21.5839 43.9171 22.4772 45.8901 22.4772C47.2322 22.4772 48.4938 22.058 49.5904 21.1139V22.202H53.0155V8.6835H49.5904ZM49.4507 17.4644C48.7648 18.4678 47.5878 19.1367 46.2457 19.1367C44.2474 19.1367 42.7401 17.5745 42.7401 15.4576C42.7401 13.5058 44.0822 11.753 46.1653 11.753C47.5328 11.753 48.714 12.4219 49.4507 13.4253V17.4644ZM67.8677 19.4416C66.3054 21.5585 64.3325 22.4772 61.843 22.4772C57.732 22.4772 54.7217 19.3569 54.7217 15.4533C54.7217 11.5498 57.8167 8.39984 61.8726 8.39984C64.1716 8.39984 66.2292 9.48792 67.4612 11.1052L64.9421 13.3618C64.2308 12.4135 63.1597 11.7445 61.8726 11.7445C59.8192 11.7445 58.2866 13.3872 58.2866 15.4533C58.2866 17.5194 59.7938 19.1325 61.9573 19.1325C63.4095 19.1325 64.5611 18.2434 65.1369 17.3501L67.8761 19.4416H67.8677ZM78.4606 22.202C77.9949 22.3671 76.928 22.4814 76.2421 22.4814C74.104 22.4814 72.546 21.7574 71.64 20.5296C70.9541 19.6109 70.6535 18.4128 70.6535 16.4864V11.7488H68.4308V8.6835H70.6535V4.91966H74.2141V8.6835H78.4606V11.7488H74.2141V16.9055C74.2141 17.7396 74.3538 18.2434 74.6544 18.6075C75.0101 19.0267 75.5859 19.2764 76.4623 19.2764C76.983 19.2764 77.6689 19.1918 77.9144 19.1367L78.4606 22.202ZM80.9247 8.6835H84.4853V22.202H80.9247V8.6835ZM100.718 8.6835L94.6083 22.202H92.1442L86.0349 8.6835H89.731L93.3762 16.9309L97.0173 8.6835H100.718Z" fill="#A21780"/>
<path d="M31.1819 12.0282C31.1819 12.151 31.0845 12.2484 30.9617 12.2484C30.8389 12.2484 30.7415 12.151 30.7415 12.0282C30.7415 11.9054 30.8389 11.808 30.9617 11.808C31.0845 11.808 31.1819 11.9054 31.1819 12.0282Z" fill="#ED6F41"/>
<path d="M30.4409 6.8037C30.3182 6.8037 30.2208 6.90107 30.2208 7.02385C30.2208 7.14663 30.3182 7.24401 30.4409 7.24401C30.5637 7.24401 30.6611 7.14663 30.6611 7.02385C30.6611 6.90107 30.5637 6.8037 30.4409 6.8037Z" fill="#F0843A"/>
<path d="M11.1857 3.60296C11.1857 3.48018 11.0883 3.3828 10.9655 3.3828C10.8427 3.3828 10.7454 3.48018 10.7454 3.60296C10.7454 3.72574 10.8427 3.82311 10.9655 3.82311C11.0883 3.82311 11.1857 3.72574 11.1857 3.60296Z" fill="#D0197D"/>
<path d="M22.2189 5.14829C22.3417 5.14829 22.4391 5.05091 22.4391 4.92813C22.4391 4.80535 22.3417 4.70798 22.2189 4.70798C22.0962 4.70798 21.9988 4.80535 21.9988 4.92813C21.9988 5.05091 22.0962 5.14829 22.2189 5.14829Z" fill="#EF8026"/>
<path d="M13.4719 5.08901C13.4719 4.96623 13.3745 4.86886 13.2518 4.86886C13.129 4.86886 13.0316 4.96623 13.0316 5.08901C13.0316 5.21179 13.129 5.30917 13.2518 5.30917C13.3745 5.30917 13.4719 5.21179 13.4719 5.08901Z" fill="#D71876"/>
<path d="M30.1361 8.73854C30.2589 8.73854 30.3563 8.64116 30.3563 8.51838C30.3563 8.3956 30.2589 8.29823 30.1361 8.29823C30.0133 8.29823 29.916 8.3956 29.916 8.51838C29.916 8.64116 30.0133 8.73854 30.1361 8.73854Z" fill="#EE7F3A"/>
<path d="M25.9235 10.394C25.9235 11.5752 26.8803 12.532 28.0616 12.532C29.2428 12.532 30.1996 11.5752 30.1996 10.394C30.1996 9.21273 29.2428 8.25589 28.0616 8.25589C26.8803 8.25589 25.9235 9.21273 25.9235 10.394Z" fill="#EE7B3C"/>
<path d="M27.0074 7.22285C27.0074 7.70973 27.4011 8.10347 27.888 8.10347C28.3749 8.10347 28.7686 7.70973 28.7686 7.22285C28.7686 6.73596 28.3749 6.34222 27.888 6.34222C27.4011 6.34222 27.0074 6.73596 27.0074 7.22285Z" fill="#F18A3B"/>
<path d="M26.7872 8.15428C26.7872 8.0315 26.6898 7.93412 26.567 7.93412C26.4442 7.93412 26.3469 8.0315 26.3469 8.15428C26.3469 8.27706 26.4442 8.37444 26.567 8.37444C26.6898 8.37444 26.7872 8.27706 26.7872 8.15428Z" fill="#F18A3B"/>
<path d="M26.6136 5.5378C26.6221 5.78336 26.8253 5.96964 27.0708 5.96118C27.3122 5.95271 27.5027 5.74949 27.4942 5.50816C27.4858 5.2626 27.2825 5.07632 27.037 5.08478C26.7956 5.09325 26.6051 5.29647 26.6136 5.5378Z" fill="#F29236"/>
<path d="M26.6136 4.3354C26.7364 4.3354 26.8338 4.23802 26.8338 4.11524C26.8338 3.99246 26.7364 3.89509 26.6136 3.89509C26.4908 3.89509 26.3934 3.99246 26.3934 4.11524C26.3934 4.23802 26.4908 4.3354 26.6136 4.3354Z" fill="#F49A37"/>
<path d="M25.8642 7.15087C25.8642 7.39643 26.0632 7.59119 26.3045 7.59119C26.5459 7.59119 26.7449 7.3922 26.7449 7.15087C26.7449 6.90955 26.5459 6.71056 26.3045 6.71056C26.0632 6.71056 25.8642 6.90531 25.8642 7.15087Z" fill="#F2903B"/>
<path d="M22.4899 5.88497C22.4899 6.85874 23.2774 7.64623 24.2512 7.64623C25.2249 7.64623 26.0124 6.85874 26.0124 5.88497C26.0124 4.9112 25.2249 4.12371 24.2512 4.12371C23.2774 4.12371 22.4899 4.9112 22.4899 5.88497Z" fill="#F39433"/>
<path d="M23.7727 3.35316C23.8955 3.35316 23.9929 3.25578 23.9929 3.133C23.9929 3.01022 23.8955 2.91285 23.7727 2.91285C23.65 2.91285 23.5526 3.01022 23.5526 3.133C23.5526 3.25578 23.65 3.35316 23.7727 3.35316Z" fill="#F08427"/>
<path d="M22.7651 4.39044C23.0064 4.38197 23.1969 4.17875 23.1885 3.93319C23.18 3.69186 22.9768 3.50134 22.7354 3.50981C22.4941 3.51828 22.3036 3.7215 22.3121 3.96283C22.3205 4.20839 22.5238 4.39467 22.7693 4.3862" fill="#EF8026"/>
<path d="M20.174 3.26425C20.174 3.75114 20.5678 4.14488 21.0546 4.14488C21.5415 4.14488 21.9353 3.75114 21.9353 3.26425C21.9353 2.77737 21.5415 2.38362 21.0546 2.38362C20.5678 2.38362 20.174 2.77737 20.174 3.26425Z" fill="#EC6D24"/>
<path d="M20.3053 1.06268C20.428 1.06268 20.5254 0.965303 20.5254 0.842523C20.5254 0.719743 20.428 0.622366 20.3053 0.622366C20.1825 0.622366 20.0851 0.719743 20.0851 0.842523C20.0851 0.965303 20.1825 1.06268 20.3053 1.06268Z" fill="#E95D27"/>
<path d="M20.2417 4.83499C20.3857 4.83499 20.5042 4.71644 20.5042 4.57249C20.5042 4.42855 20.3857 4.31 20.2417 4.31C20.0978 4.31 19.975 4.42855 19.975 4.57249C19.975 4.71644 20.0936 4.83499 20.2417 4.83499Z" fill="#EC6A24"/>
<path d="M27.2317 17.2654C27.109 17.2654 27.0116 17.3628 27.0116 17.4855C27.0116 17.6083 27.109 17.7057 27.2317 17.7057C27.3545 17.7057 27.4519 17.6083 27.4519 17.4855C27.4519 17.3628 27.3545 17.2654 27.2317 17.2654Z" fill="#E95347"/>
<path d="M15.3813 4.74608C15.3813 5.96118 16.3678 6.94765 17.5829 6.94765C18.798 6.94765 19.7845 5.96118 19.7845 4.74608C19.7845 3.53098 18.798 2.54451 17.5829 2.54451C16.3678 2.54451 15.3813 3.53098 15.3813 4.74608Z" fill="#E94F39"/>
<path d="M18.925 2.48523C19.1706 2.47677 19.3569 2.27354 19.3484 2.02798C19.3399 1.78666 19.1367 1.59614 18.8954 1.60461C18.6498 1.61307 18.4636 1.8163 18.472 2.05762C18.4805 2.30318 18.6837 2.48947 18.925 2.481" fill="#E85530"/>
<path d="M18.0063 1.06268C18.1291 1.06268 18.2265 0.965303 18.2265 0.842523C18.2265 0.719743 18.1291 0.622366 18.0063 0.622366C17.8835 0.622366 17.7862 0.719743 17.7862 0.842523C17.7862 0.965303 17.8835 1.06268 18.0063 1.06268Z" fill="#E84B3B"/>
<path d="M15.8386 3.05256C15.9614 3.05256 16.0588 2.95519 16.0588 2.83241C16.0588 2.70963 15.9614 2.61225 15.8386 2.61225C15.7158 2.61225 15.6185 2.70963 15.6185 2.83241C15.6185 2.95519 15.7158 3.05256 15.8386 3.05256Z" fill="#E63851"/>
<path d="M15.3094 6.28718C15.4322 6.28718 15.5295 6.1898 15.5295 6.06702C15.5295 5.94424 15.4322 5.84686 15.3094 5.84686C15.1866 5.84686 15.0892 5.94424 15.0892 6.06702C15.0892 6.1898 15.1866 6.28718 15.3094 6.28718Z" fill="#E43258"/>
<path d="M14.5896 4.10677C15.0765 4.10677 15.4703 3.71303 15.4703 3.22615C15.4703 2.73926 15.0765 2.34552 14.5896 2.34552C14.1028 2.34552 13.709 2.73926 13.709 3.22615C13.709 3.71303 14.1028 4.10677 14.5896 4.10677Z" fill="#E02A63"/>
<path d="M13.2983 3.34893C13.4211 3.34893 13.5185 3.25155 13.5185 3.12877C13.5185 3.00599 13.4211 2.90861 13.2983 2.90861C13.1756 2.90861 13.0782 3.00599 13.0782 3.12877C13.0782 3.25155 13.1756 3.34893 13.2983 3.34893Z" fill="#D91B70"/>
<path d="M13.1882 4.37774C13.4338 4.37774 13.6286 4.18298 13.6286 3.93742C13.6286 3.69186 13.4296 3.49711 13.1882 3.49711C12.9469 3.49711 12.7479 3.6961 12.7479 3.93742C12.7479 4.17875 12.9469 4.37774 13.1882 4.37774Z" fill="#D81875"/>
<path d="M15.6396 7.38796C15.8936 7.38796 16.1053 7.18051 16.1053 6.92225C16.1053 6.66399 15.8979 6.45653 15.6396 6.45653C15.3813 6.45653 15.1739 6.66399 15.1739 6.92225C15.1739 7.18051 15.3813 7.38796 15.6396 7.38796Z" fill="#E73A4F"/>
<path d="M15.1104 4.81382C15.1104 4.55979 14.9029 4.35233 14.6447 4.35233C14.3864 4.35233 14.179 4.55979 14.179 4.81382C14.179 5.06785 14.3864 5.27954 14.6447 5.27954C14.9029 5.27954 15.1104 5.07208 15.1104 4.81382Z" fill="#E02A61"/>
<path d="M16.1561 7.48957C16.1561 7.68433 16.3128 7.84098 16.5075 7.84098C16.7023 7.84098 16.8589 7.68433 16.8589 7.48957C16.8589 7.29482 16.7023 7.13817 16.5075 7.13817C16.3128 7.13817 16.1561 7.29482 16.1561 7.48957Z" fill="#E84541"/>
<path d="M11.825 3.10337C12.3118 3.10337 12.7056 2.70963 12.7056 2.22274C12.7056 1.73585 12.3118 1.34211 11.825 1.34211C11.3381 1.34211 10.9443 1.73585 10.9443 2.22274C10.9443 2.70963 11.3381 3.10337 11.825 3.10337Z" fill="#D41878"/>
<path d="M10.6056 1.38868C10.847 1.38021 11.0375 1.17699 11.029 0.931433C11.0206 0.690107 10.8173 0.499586 10.5718 0.508054C10.3305 0.516521 10.1399 0.719743 10.1484 0.965303C10.1569 1.20663 10.3601 1.39715 10.6014 1.38868" fill="#D1197B"/>
<path d="M9.89438 0.43608C10.0172 0.43608 10.1145 0.338703 10.1145 0.215923C10.1145 0.0931428 10.0172 -0.00423431 9.89438 -0.00423431C9.7716 -0.00423431 9.67422 0.0931428 9.67422 0.215923C9.67422 0.338703 9.7716 0.43608 9.89438 0.43608Z" fill="#D0197D"/>
<path d="M9.26354 4.74184C9.99176 4.74184 10.5845 4.14911 10.5845 3.4209C10.5845 2.69269 9.99176 2.09996 9.26354 2.09996C8.53533 2.09996 7.9426 2.69269 7.9426 3.4209C7.9426 4.14911 8.53533 4.74184 9.26354 4.74184Z" fill="#C91F82"/>
<path d="M8.30246 1.82476C8.42524 1.82476 8.52262 1.72738 8.52262 1.6046C8.52262 1.48182 8.42524 1.38445 8.30246 1.38445C8.17968 1.38445 8.08231 1.48182 8.08231 1.6046C8.08231 1.72738 8.17968 1.82476 8.30246 1.82476Z" fill="#C91F82"/>
<path d="M7.54038 3.55638C7.66316 3.55638 7.76054 3.45901 7.76054 3.33623C7.76054 3.21345 7.66316 3.11607 7.54038 3.11607C7.4176 3.11607 7.32022 3.21345 7.32022 3.33623C7.32022 3.45901 7.4176 3.55638 7.54038 3.55638Z" fill="#C42384"/>
<path d="M4.1618 5.5632C4.1618 6.7529 5.12288 7.71397 6.31257 7.71397C7.50226 7.71397 8.46334 6.7529 8.46334 5.5632C8.46334 4.37351 7.49803 3.41244 6.31257 3.41244C5.12711 3.41244 4.1618 4.37774 4.1618 5.5632Z" fill="#B72D86"/>
<path d="M4.42854 3.67493C4.66986 3.67493 4.86885 3.47594 4.86885 3.23462C4.86885 2.99329 4.6741 2.7943 4.42854 2.7943C4.18298 2.7943 3.98822 2.99329 3.98822 3.23462C3.98822 3.47594 4.18298 3.67493 4.42854 3.67493Z" fill="#B72D86"/>
<path d="M3.77232 7.23131C4.01788 7.23131 4.21263 7.03232 4.21263 6.791C4.21263 6.54967 4.01364 6.35068 3.77232 6.35068C3.53099 6.35068 3.332 6.54967 3.332 6.791C3.332 7.03232 3.53099 7.23131 3.77232 7.23131Z" fill="#A2348A"/>
<path d="M1.4776 7.37526C1.4776 7.86215 1.87134 8.25589 2.35823 8.25589C2.84512 8.25589 3.23885 7.86215 3.23885 7.37526C3.23885 6.88838 2.84512 6.49463 2.35823 6.49463C1.87134 6.49463 1.4776 6.88838 1.4776 7.37526Z" fill="#973389"/>
<path d="M16.0673 27.363C15.6777 27.363 15.3644 27.6763 15.3644 28.0658C15.3644 28.4553 15.6777 28.7686 16.0673 28.7686C16.4568 28.7686 16.77 28.4553 16.77 28.0658C16.77 27.6763 16.4568 27.363 16.0673 27.363Z" fill="#8F3077"/>
<path d="M1.74433 5.8765C1.98565 5.8765 2.18465 5.67751 2.18465 5.43618C2.18465 5.19486 1.98565 4.99587 1.74433 4.99587C1.503 4.99587 1.30402 5.19486 1.30402 5.43618C1.30402 5.67751 1.503 5.8765 1.74433 5.8765Z" fill="#A03489"/>
<path d="M1.87558 4.3608C1.99836 4.3608 2.09574 4.26343 2.09574 4.14065C2.09574 4.01787 1.99836 3.92049 1.87558 3.92049C1.7528 3.92049 1.65543 4.01787 1.65543 4.14065C1.65543 4.26343 1.7528 4.3608 1.87558 4.3608Z" fill="#A83389"/>
<path d="M0.994936 9.03491C1.13465 9.03491 1.24896 8.9206 1.24896 8.78088C1.24896 8.64117 1.13465 8.52685 0.994936 8.52685C0.855221 8.52685 0.740906 8.64117 0.740906 8.78088C0.740906 8.9206 0.855221 9.03491 0.994936 9.03491Z" fill="#8A3589"/>
<path d="M0.880629 12.5617C0.880629 12.3161 0.681637 12.1213 0.440311 12.1213C0.198985 12.1213 0 12.3203 0 12.5617C0 12.803 0.198985 13.002 0.440311 13.002C0.681637 13.002 0.880629 12.803 0.880629 12.5617Z" fill="#6F378C"/>
<path d="M0.643534 18.5525C0.402208 18.5525 0.203217 18.7515 0.203217 18.9928C0.203217 19.2341 0.402208 19.4331 0.643534 19.4331C0.88486 19.4331 1.08385 19.2341 1.08385 18.9928C1.08385 18.7515 0.88486 18.5525 0.643534 18.5525Z" fill="#434192"/>
<path d="M2.55296 19.124C2.06608 19.124 1.67233 19.5178 1.67233 20.0047C1.67233 20.4915 2.06608 20.8853 2.55296 20.8853C3.03985 20.8853 3.43359 20.4915 3.43359 20.0047C3.43359 19.5178 3.03985 19.124 2.55296 19.124Z" fill="#3A4393"/>
<path d="M2.33282 22.2697C2.21004 22.2697 2.11267 22.3671 2.11267 22.4899C2.11267 22.6127 2.21004 22.71 2.33282 22.71C2.4556 22.71 2.55298 22.6127 2.55298 22.4899C2.55298 22.3671 2.4556 22.2697 2.33282 22.2697Z" fill="#2D4795"/>
<path d="M4.42009 20.2375C3.9332 20.2375 3.53946 20.6313 3.53946 21.1181C3.53946 21.605 3.9332 21.9988 4.42009 21.9988C4.90697 21.9988 5.30072 21.605 5.30072 21.1181C5.30072 20.6313 4.90697 20.2375 4.42009 20.2375Z" fill="#2F4695"/>
<path d="M4.69105 22.384C4.44972 22.384 4.25073 22.583 4.25073 22.8244C4.25073 23.0657 4.44972 23.2647 4.69105 23.2647C4.93238 23.2647 5.13136 23.0657 5.13136 22.8244C5.13136 22.583 4.93238 22.384 4.69105 22.384Z" fill="#264997"/>
<path d="M4.73761 19.1791C4.73761 19.8353 5.27107 20.3688 5.9273 20.3688C6.58354 20.3688 7.117 19.8353 7.117 19.1791C7.117 18.5228 6.58354 17.9894 5.9273 17.9894C5.27107 17.9894 4.73761 18.5228 4.73761 19.1791Z" fill="#364493"/>
<path d="M6.34645 8.18392C6.34645 8.06114 6.24907 7.96376 6.12629 7.96376C6.00351 7.96376 5.90613 8.06114 5.90613 8.18392C5.90613 8.3067 6.00351 8.40407 6.12629 8.40407C6.24907 8.40407 6.34645 8.3067 6.34645 8.18392Z" fill="#A63389"/>
<path d="M12.2187 6.57507C12.2187 6.69785 12.3161 6.79523 12.4389 6.79523C12.5617 6.79523 12.659 6.69785 12.659 6.57507C12.659 6.45229 12.5617 6.35492 12.4389 6.35492C12.3161 6.35492 12.2187 6.45229 12.2187 6.57507Z" fill="#D2187B"/>
<path d="M13.9292 4.64447C13.9292 4.52169 13.8318 4.42431 13.709 4.42431C13.5862 4.42431 13.4889 4.52169 13.4889 4.64447C13.4889 4.76725 13.5862 4.86462 13.709 4.86462C13.8318 4.86462 13.9292 4.76725 13.9292 4.64447Z" fill="#DA1D6E"/>
<path d="M14.162 7.76477C14.162 7.88755 14.2594 7.98493 14.3822 7.98493C14.505 7.98493 14.6023 7.88755 14.6023 7.76477C14.6023 7.64199 14.505 7.54461 14.3822 7.54461C14.2594 7.54461 14.162 7.64199 14.162 7.76477Z" fill="#DA2169"/>
<path d="M5.85109 17.7565C6.01197 17.7565 6.14745 17.6253 6.14745 17.4601C6.14745 17.295 6.01621 17.1638 5.85109 17.1638C5.68597 17.1638 5.55472 17.295 5.55472 17.4601C5.55472 17.6253 5.68597 17.7565 5.85109 17.7565Z" fill="#473E90"/>
<path d="M5.70292 8.64116C5.70292 7.91295 5.11019 7.32022 4.38198 7.32022C3.65377 7.32022 3.06104 7.91295 3.06104 8.64116C3.06104 9.36938 3.65377 9.96211 4.38198 9.96211C5.11019 9.96211 5.70292 9.36938 5.70292 8.64116Z" fill="#973389"/>
<path d="M0.512299 14.0181C0.512299 14.505 0.906035 14.8987 1.39292 14.8987C1.87981 14.8987 2.27355 14.505 2.27355 14.0181C2.27355 13.5312 1.87981 13.1374 1.39292 13.1374C0.906035 13.1374 0.512299 13.5312 0.512299 14.0181Z" fill="#65398C"/>
<path d="M2.69269 13.9249C2.69269 14.1705 2.89167 14.3653 3.133 14.3653C3.37433 14.3653 3.57332 14.1663 3.57332 13.9249C3.57332 13.6836 3.37433 13.4846 3.133 13.4846C2.89167 13.4846 2.69269 13.6836 2.69269 13.9249Z" fill="#69388C"/>
<path d="M4.94929 10.4024C4.94929 10.2796 4.85191 10.1823 4.72913 10.1823C4.60635 10.1823 4.50897 10.2796 4.50897 10.4024C4.50897 10.5252 4.60635 10.6226 4.72913 10.6226C4.85191 10.6226 4.94929 10.5252 4.94929 10.4024Z" fill="#8A3589"/>
<path d="M4.14066 14.1155C4.38622 14.1155 4.58098 13.9165 4.58098 13.6751C4.58098 13.4338 4.38199 13.2348 4.14066 13.2348C3.89933 13.2348 3.70035 13.4338 3.70035 13.6751C3.70035 13.9165 3.89933 14.1155 4.14066 14.1155Z" fill="#6C378C"/>
<path d="M4.5344 14.6362C4.65718 14.6362 4.75455 14.5388 4.75455 14.4161C4.75455 14.2933 4.65718 14.1959 4.5344 14.1959C4.41162 14.1959 4.31424 14.2933 4.31424 14.4161C4.31424 14.5388 4.41162 14.6362 4.5344 14.6362Z" fill="#66398C"/>
<path d="M3.60297 19.4204C3.60297 19.6617 3.80196 19.8607 4.04328 19.8607C4.28461 19.8607 4.4836 19.6617 4.4836 19.4204C4.4836 19.1791 4.28461 18.9801 4.04328 18.9801C3.80196 18.9801 3.60297 19.1791 3.60297 19.4204Z" fill="#3B4192"/>
<path d="M3.28542 18.8277C4.48359 18.8277 5.45313 17.8581 5.45313 16.6557C5.45313 15.4533 4.48359 14.4838 3.28542 14.4838C2.08726 14.4838 1.11349 15.4576 1.11349 16.6557C1.11349 17.8539 2.08303 18.8277 3.28542 18.8277Z" fill="#513C8F"/>
<path d="M2.88743 9.08995C2.88743 8.84439 2.68844 8.64963 2.44712 8.64963C2.20579 8.64963 2.00681 8.84862 2.00681 9.08995C2.00681 9.33127 2.20579 9.53026 2.44712 9.53026C2.68844 9.53026 2.88743 9.33127 2.88743 9.08995Z" fill="#8C3589"/>
<path d="M4.60638 11.6006C4.60638 10.6268 3.81889 9.83933 2.84512 9.83933C1.87135 9.83933 1.08386 10.6268 1.08386 11.6006C1.08386 12.5744 1.87135 13.3618 2.84512 13.3618C3.81889 13.3618 4.60638 12.5744 4.60638 11.6006Z" fill="#7A368B"/>
<path d="M9.67421 22.4857C9.67421 21.3087 8.70891 20.3561 7.52345 20.3561C6.33799 20.3561 5.37268 21.3087 5.37268 22.4857C5.37268 23.6626 6.33375 24.6152 7.52345 24.6152C8.71314 24.6152 9.67421 23.6626 9.67421 22.4857Z" fill="#2C4795"/>
<path d="M7.82829 25.4747C7.82829 25.2292 7.6293 25.0344 7.38797 25.0344C7.14665 25.0344 6.94766 25.2334 6.94766 25.4747C6.94766 25.716 7.14665 25.915 7.38797 25.915C7.6293 25.915 7.82829 25.716 7.82829 25.4747Z" fill="#374292"/>
<path d="M8.0823 26.7745C7.95952 26.7745 7.86215 26.8719 7.86215 26.9946C7.86215 27.1174 7.95952 27.2148 8.0823 27.2148C8.20508 27.2148 8.30246 27.1132 8.30246 26.9946C8.30246 26.8761 8.20508 26.7745 8.0823 26.7745Z" fill="#433F90"/>
<path d="M8.87403 24.5348C8.62847 24.5348 8.43372 24.7338 8.43372 24.9751C8.43372 25.2165 8.63271 25.4154 8.87403 25.4154C9.11536 25.4154 9.31434 25.2165 9.31434 24.9751C9.31434 24.7338 9.11536 24.5348 8.87403 24.5348Z" fill="#3F4091"/>
<path d="M12.1086 24.302C12.1086 23.5737 11.5159 22.981 10.7877 22.981C10.0595 22.981 9.46674 23.5737 9.46674 24.302C9.46674 25.0302 10.0595 25.6229 10.7877 25.6229C11.5159 25.6229 12.1086 25.0302 12.1086 24.302Z" fill="#4D3B8F"/>
<path d="M10.8978 27.7525C10.775 27.7525 10.6776 27.8499 10.6776 27.9727C10.6776 28.0954 10.775 28.1928 10.8978 28.1928C11.0205 28.1928 11.1179 28.0954 11.1179 27.9727C11.1179 27.8499 11.0205 27.7525 10.8978 27.7525Z" fill="#5F388A"/>
<path d="M11.5074 25.6695C11.2661 25.6695 11.0671 25.8685 11.0671 26.1098C11.0671 26.3511 11.2661 26.5501 11.5074 26.5501C11.7488 26.5501 11.9478 26.3511 11.9478 26.1098C11.9478 25.8685 11.7488 25.6695 11.5074 25.6695Z" fill="#5E398C"/>
<path d="M12.5066 27.2275C12.2653 27.2275 12.0663 27.4223 12.0663 27.6678C12.0663 27.9134 12.2653 28.1081 12.5066 28.1081C12.748 28.1081 12.9469 27.9091 12.9469 27.6678C12.9469 27.4265 12.748 27.2275 12.5066 27.2275Z" fill="#6E3684"/>
<path d="M11.5329 3.87392C10.8046 3.87392 10.2119 4.46665 10.2119 5.19486C10.2119 5.92307 10.8046 6.5158 11.5329 6.5158C12.2611 6.5158 12.8538 5.92307 12.8538 5.19486C12.8538 4.46665 12.2611 3.87392 11.5329 3.87392Z" fill="#D0197D"/>
<path d="M13.4973 24.6407C12.7691 24.6407 12.1764 25.2334 12.1764 25.9616C12.1764 26.6898 12.7691 27.2825 13.4973 27.2825C14.2255 27.2825 14.8183 26.6898 14.8183 25.9616C14.8183 25.2334 14.2255 24.6407 13.4973 24.6407Z" fill="#753482"/>
<path d="M14.5092 27.6763C14.3864 27.6763 14.289 27.7737 14.289 27.8964C14.289 28.0192 14.3864 28.1166 14.5092 28.1166C14.632 28.1166 14.7293 28.0192 14.7293 27.8964C14.7293 27.7737 14.632 27.6763 14.5092 27.6763Z" fill="#80317D"/>
<path d="M15.1273 27.2317C15.0046 27.2317 14.9072 27.3291 14.9072 27.4519C14.9072 27.5747 15.0046 27.6721 15.1273 27.6721C15.2501 27.6721 15.3475 27.5747 15.3475 27.4519C15.3475 27.3291 15.2501 27.2317 15.1273 27.2317Z" fill="#87317B"/>
<path d="M15.3983 26.1818C15.1527 26.1818 14.958 26.3807 14.958 26.6221C14.958 26.8634 15.157 27.0624 15.3983 27.0624C15.6396 27.0624 15.8386 26.8634 15.8386 26.6221C15.8386 26.3807 15.6396 26.1818 15.3983 26.1818Z" fill="#873179"/>
<path d="M15.5084 25.1148C15.2628 25.1148 15.0681 25.3138 15.0681 25.5552C15.0681 25.7965 15.267 25.9955 15.5084 25.9955C15.7497 25.9955 15.9487 25.7965 15.9487 25.5552C15.9487 25.3138 15.7497 25.1148 15.5084 25.1148Z" fill="#8B3179"/>
<path d="M16.0926 8.28129C16.0926 7.89178 15.7793 7.57848 15.3898 7.57848C15.0003 7.57848 14.687 7.89178 14.687 8.28129C14.687 8.6708 15.0003 8.9841 15.3898 8.9841C15.7793 8.9841 16.0926 8.6708 16.0926 8.28129Z" fill="#E63751"/>
<path d="M14.9495 6.39302C14.9495 5.82146 14.4838 5.35575 13.9122 5.35575C13.3407 5.35575 12.875 5.82146 12.875 6.39302C12.875 6.96459 13.3407 7.4303 13.9122 7.4303C14.4838 7.4303 14.9495 6.96459 14.9495 6.39302Z" fill="#D91D6F"/>
<path d="M9.33975 5.16946C8.95447 5.16946 8.64117 5.48276 8.64117 5.86803C8.64117 6.25331 8.95447 6.56661 9.33975 6.56661C9.72502 6.56661 10.0383 6.25331 10.0383 5.86803C10.0383 5.48276 9.72502 5.16946 9.33975 5.16946Z" fill="#C42384"/>
<path d="M18.3069 24.0183C18.3069 24.1622 18.4255 24.2808 18.5694 24.2808C18.7134 24.2808 18.8319 24.1622 18.8319 24.0183C18.8319 23.8743 18.7134 23.7516 18.5694 23.7516C18.4255 23.7516 18.3069 23.8701 18.3069 24.0183Z" fill="#B22C67"/>
<path d="M17.9047 24.3951C16.9309 24.3951 16.1434 25.1826 16.1434 26.1564C16.1434 27.1301 16.9309 27.9176 17.9047 27.9176C18.8785 27.9176 19.6659 27.1301 19.6659 26.1564C19.6659 25.1826 18.8785 24.3951 17.9047 24.3951Z" fill="#A42C6D"/>
<path d="M20.3603 25.5763C20.1147 25.5763 19.92 25.7753 19.92 26.0166C19.92 26.258 20.119 26.457 20.3603 26.457C20.6016 26.457 20.8006 26.258 20.8006 26.0166C20.8006 25.7753 20.6016 25.5763 20.3603 25.5763Z" fill="#BF2762"/>
<path d="M21.8845 25.733C21.3976 25.733 21.0038 26.1267 21.0038 26.6136C21.0038 27.1005 21.3976 27.4942 21.8845 27.4942C22.3713 27.4942 22.7651 27.1005 22.7651 26.6136C22.7651 26.1267 22.3713 25.733 21.8845 25.733Z" fill="#C9295F"/>
<path d="M21.3552 28.1547C21.2324 28.1547 21.1351 28.2521 21.1351 28.3749C21.1351 28.4976 21.2324 28.595 21.3552 28.595C21.478 28.595 21.5754 28.4976 21.5754 28.3749C21.5754 28.2521 21.4738 28.1547 21.3552 28.1547Z" fill="#BE2963"/>
<path d="M17.1045 28.7644C16.9817 28.7644 16.8844 28.8617 16.8844 28.9845C16.8844 29.1073 16.9817 29.2047 17.1045 29.2047C17.2273 29.2047 17.3247 29.1073 17.3247 28.9845C17.3247 28.8617 17.2273 28.7644 17.1045 28.7644Z" fill="#972F75"/>
<path d="M22.4433 23.8024C22.202 23.8024 22.003 24.0013 22.003 24.2427C22.003 24.484 22.202 24.683 22.4433 24.683C22.6846 24.683 22.8836 24.4882 22.8836 24.2427C22.8836 23.9971 22.6846 23.8024 22.4433 23.8024Z" fill="#DB2557"/>
<path d="M21.7871 25.335C21.9099 25.335 22.0072 25.2376 22.0072 25.1148C22.0072 24.9921 21.9099 24.8947 21.7871 24.8947C21.6643 24.8947 21.5669 24.9921 21.5669 25.1148C21.5669 25.2376 21.6643 25.335 21.7871 25.335Z" fill="#CF265B"/>
<path d="M19.5347 6.23637C19.5347 6.35915 19.6321 6.45653 19.7549 6.45653C19.8776 6.45653 19.975 6.35915 19.975 6.23637C19.975 6.11359 19.8776 6.01621 19.7549 6.01621C19.6321 6.01621 19.5347 6.11359 19.5347 6.23637Z" fill="#EC6E22"/>
<path d="M20.9403 22.2655C20.9403 22.1427 20.8429 22.0453 20.7202 22.0453C20.5974 22.0453 20.5 22.1427 20.5 22.2655C20.5 22.3883 20.5974 22.4857 20.7202 22.4857C20.8429 22.4857 20.9403 22.3883 20.9403 22.2655Z" fill="#D92558"/>
<path d="M20.3899 22.6592C19.6617 22.6592 19.069 23.252 19.069 23.9802C19.069 24.7084 19.6617 25.3011 20.3899 25.3011C21.1182 25.3011 21.7109 24.7084 21.7109 23.9802C21.7109 23.252 21.1182 22.6592 20.3899 22.6592Z" fill="#C7285E"/>
<path d="M22.1808 6.791C22.3036 6.791 22.401 6.69362 22.401 6.57084C22.401 6.44806 22.3036 6.35068 22.1808 6.35068C22.058 6.35068 21.9607 6.44806 21.9607 6.57084C21.9607 6.69362 22.058 6.791 22.1808 6.791Z" fill="#F18C2F"/>
<path d="M22.5703 20.2756C22.5703 20.5212 22.7693 20.7159 23.0107 20.7159C23.252 20.7159 23.451 20.5169 23.451 20.2756C23.451 20.0343 23.2562 19.8353 23.0107 19.8353C22.7651 19.8353 22.5703 20.0343 22.5703 20.2756Z" fill="#E6354E"/>
<path d="M22.4814 20.7921C21.7532 20.7921 21.1605 21.3849 21.1605 22.1131C21.1605 22.8413 21.7532 23.434 22.4814 23.434C23.2096 23.434 23.8024 22.8413 23.8024 22.1131C23.8024 21.3849 23.2096 20.7921 22.4814 20.7921Z" fill="#E52A53"/>
<path d="M24.5602 21.9395C24.3189 21.9395 24.1199 22.1343 24.1199 22.3798C24.1199 22.6254 24.3189 22.8201 24.5602 22.8201C24.8015 22.8201 25.0005 22.6211 25.0005 22.3798C25.0005 22.1385 24.8015 21.9395 24.5602 21.9395Z" fill="#E63250"/>
<path d="M25.6314 24.4544C25.39 24.4628 25.1995 24.6661 25.208 24.9116C25.2164 25.1529 25.4197 25.3435 25.661 25.335C25.9065 25.3265 26.0928 25.1233 26.0844 24.882C26.0759 24.6364 25.8727 24.4501 25.6271 24.4586" fill="#E52A51"/>
<path d="M26.0844 23.3494C25.9616 23.3494 25.8642 23.4467 25.8642 23.5695C25.8642 23.6923 25.9616 23.7897 26.0844 23.7897C26.2072 23.7897 26.3045 23.6923 26.3045 23.5695C26.3045 23.4467 26.2072 23.3494 26.0844 23.3494Z" fill="#E6314F"/>
<path d="M10.2669 22.7778C10.4109 22.7778 10.5294 22.6592 10.5294 22.5153C10.5294 22.3713 10.4109 22.2486 10.2669 22.2486C10.123 22.2486 10.0045 22.3671 10.0045 22.5153C10.0045 22.6635 10.123 22.7778 10.2669 22.7778Z" fill="#3C4192"/>
<path d="M25.7457 17.4517C24.5306 17.4517 23.5441 18.4382 23.5441 19.6533C23.5441 20.8683 24.5306 21.8548 25.7457 21.8548C26.9608 21.8548 27.9472 20.8683 27.9472 19.6533C27.9472 18.4382 26.9608 17.4517 25.7457 17.4517Z" fill="#E74149"/>
<path d="M28.1081 17.5491C27.8668 17.5491 27.6678 17.748 27.6678 17.9894C27.6678 18.2307 27.8668 18.4297 28.1081 18.4297C28.3495 18.4297 28.5484 18.2349 28.5484 17.9894C28.5484 17.7438 28.3495 17.5491 28.1081 17.5491Z" fill="#E95147"/>
<path d="M26.7787 12.5955C26.7787 12.4473 26.6602 12.3288 26.5162 12.3288C26.3723 12.3288 26.2537 12.4473 26.2537 12.5955C26.2537 12.7437 26.3723 12.858 26.5162 12.858C26.6602 12.858 26.7787 12.7395 26.7787 12.5955Z" fill="#ED723E"/>
<path d="M26.1225 16.8632C26.5162 16.8632 26.838 16.5456 26.838 16.1519C26.838 15.7582 26.5205 15.4406 26.1225 15.4406C25.7245 15.4406 25.4112 15.7582 25.4112 16.1519C25.4112 16.5456 25.733 16.8632 26.1225 16.8632Z" fill="#E95A43"/>
<path d="M25.6314 9.28047C25.5086 9.28047 25.4112 9.37784 25.4112 9.50062C25.4112 9.6234 25.5086 9.72078 25.6314 9.72078C25.7541 9.72078 25.8515 9.6234 25.8515 9.50062C25.8515 9.37784 25.7541 9.28047 25.6314 9.28047Z" fill="#F0853A"/>
<path d="M24.8904 17.0114C24.8904 17.1341 24.9878 17.2315 25.1106 17.2315C25.2334 17.2315 25.3307 17.1341 25.3307 17.0114C25.3307 16.8886 25.2334 16.7912 25.1106 16.7912C24.9878 16.7912 24.8904 16.8886 24.8904 17.0114Z" fill="#E95446"/>
<path d="M28.7601 14.1197C28.7601 13.3915 28.1674 12.7987 27.4392 12.7987C26.711 12.7987 26.1183 13.3915 26.1183 14.1197C26.1183 14.8479 26.711 15.4406 27.4392 15.4406C28.1674 15.4406 28.7601 14.8479 28.7601 14.1197Z" fill="#EB6543"/>
<path d="M28.4214 15.538C27.9346 15.538 27.5408 15.9317 27.5408 16.4186C27.5408 16.9055 27.9346 17.2993 28.4214 17.2993C28.9083 17.2993 29.3021 16.9055 29.3021 16.4186C29.3021 15.9317 28.9083 15.538 28.4214 15.538Z" fill="#E95845"/>
<path d="M29.5476 17.3204C29.3063 17.3289 29.1158 17.5321 29.1242 17.7777C29.1327 18.019 29.3359 18.2095 29.5815 18.2011C29.8228 18.1926 30.0133 17.9894 30.0049 17.748C29.9964 17.5067 29.7932 17.3162 29.5518 17.3247" fill="#E95346"/>
<path d="M29.9286 18.599C29.8059 18.599 29.7085 18.6964 29.7085 18.8192C29.7085 18.942 29.8059 19.0394 29.9286 19.0394C30.0514 19.0394 30.1488 18.942 30.1488 18.8192C30.1488 18.6964 30.0514 18.599 29.9286 18.599Z" fill="#E94F48"/>
<path d="M30.2504 12.4812C30.0091 12.4897 29.8186 12.6929 29.8271 12.9342C29.8355 13.1756 30.0387 13.3661 30.2843 13.3576C30.5256 13.3491 30.7161 13.1459 30.7077 12.9004C30.6992 12.659 30.496 12.4685 30.2504 12.477" fill="#EC6B42"/>
<path d="M25.9912 8.47605C25.9912 8.13311 25.7287 7.85368 25.4027 7.85368C25.0767 7.85368 24.8185 8.13311 24.8185 8.47605C24.8185 8.81898 25.081 9.09841 25.4027 9.09841C25.7245 9.09841 25.9912 8.81898 25.9912 8.47605Z" fill="#F18B3B"/>
<path d="M24.2723 8.01456C24.2723 8.13734 24.3697 8.23472 24.4925 8.23472C24.6153 8.23472 24.7126 8.13734 24.7126 8.01456C24.7126 7.89178 24.6153 7.7944 24.4925 7.7944C24.3697 7.7944 24.2723 7.89178 24.2723 8.01456Z" fill="#F29236"/>
<path d="M21.9437 5.61824C21.9437 5.13135 21.55 4.73761 21.0631 4.73761C20.5762 4.73761 20.1825 5.13135 20.1825 5.61824C20.1825 6.10513 20.5762 6.49887 21.0631 6.49887C21.55 6.49887 21.9437 6.10513 21.9437 5.61824Z" fill="#ED7923"/>
<path d="M7.57426 19.5178C7.40914 19.5178 7.27789 19.649 7.27789 19.8141C7.27789 19.9793 7.40914 20.1105 7.57426 20.1105C7.73937 20.1105 7.87062 19.9793 7.87062 19.8141C7.87062 19.649 7.73937 19.5178 7.57426 19.5178Z" fill="#2E4695"/>
<path d="M10.2119 27.0412C9.89013 27.0412 9.63187 26.783 9.63187 26.4612C9.63187 26.1394 9.89013 25.8769 10.2119 25.8769C10.5337 25.8769 10.7919 26.1352 10.7919 26.4612C10.7919 26.7872 10.5337 27.0412 10.2119 27.0412Z" fill="#4F358A"/>
</g>
</g>
</svg>
