<svg width="259" height="43" viewBox="0 0 259 43" fill="none" xmlns="http://www.w3.org/2000/svg">
<path d="M135.598 15.4385C137.938 15.4385 140.14 15.8111 142.203 16.5557V37.1064H137.607V29.8623C136.82 30.7133 135.565 31.1387 133.842 31.1387C131.736 31.1386 130.055 30.4472 128.8 29.0645C127.545 27.6605 126.918 25.778 126.918 23.417C126.918 21.0981 127.694 19.1933 129.247 17.7041C130.821 16.1937 132.938 15.4385 135.598 15.4385ZM65.0732 8.86523C68.2217 8.86523 70.849 9.93938 72.9551 12.0879C75.0824 14.2365 76.1464 16.8958 76.1465 20.0654C76.1465 23.2991 75.0406 26.0019 72.8281 28.1719L75.0615 30.9473L72.4453 33.1172L70.0518 30.1504C68.52 30.895 66.8603 31.2666 65.0732 31.2666C61.9247 31.2666 59.2866 30.1926 57.1592 28.0439C55.053 25.8952 54 23.2353 54 20.0654C54.0001 16.8958 55.0531 14.2365 57.1592 12.0879C59.2866 9.93922 61.9247 8.86527 65.0732 8.86523ZM201.143 15.7578H205.004V19.3643H201.143V25.2676C201.143 26.7779 201.738 27.5332 202.93 27.5332C203.589 27.5332 204.312 27.2672 205.1 26.7354L206.95 29.5439C205.525 30.6926 203.951 31.2666 202.228 31.2666C198.441 31.2666 196.547 29.1815 196.547 25.0117V19.3643H194.186V15.7578H196.547V11.2266H201.143V15.7578ZM151.919 15.2471C154.28 15.2471 156.28 15.8111 157.918 16.9385L155.972 19.9697C154.695 19.1401 153.429 18.7256 152.174 18.7256C150.834 18.7257 150.164 19.0983 150.164 19.8428C150.164 20.2469 150.398 20.5658 150.866 20.7998C151.356 21.0338 152.175 21.2999 153.323 21.5977C153.387 21.6189 153.44 21.6399 153.482 21.6611C153.525 21.6611 153.579 21.6721 153.643 21.6934C153.706 21.6934 153.77 21.7043 153.834 21.7256C155.366 22.1511 156.472 22.7359 157.152 23.4805C157.854 24.2251 158.206 25.2143 158.206 26.4482C158.206 28.0012 157.557 29.1928 156.259 30.0225C154.961 30.8307 153.398 31.2353 151.568 31.2354C148.569 31.2354 146.334 30.5011 144.866 29.0332L147.132 26.0967C147.621 26.5434 148.26 26.916 149.047 27.2139C149.855 27.5117 150.632 27.6611 151.377 27.6611C152.951 27.6611 153.738 27.2456 153.738 26.416C153.738 26.0119 153.514 25.693 153.067 25.459C152.621 25.2037 151.685 24.8848 150.26 24.502C147.154 23.6935 145.601 22.1613 145.601 19.9062C145.601 18.5235 146.196 17.4066 147.388 16.5557C148.579 15.6835 150.089 15.2471 151.919 15.2471ZM251.597 15.2471C253.937 15.2471 255.756 16.0342 257.054 17.6084C258.351 19.1826 259 21.257 259 23.8311V24.5977H248.342C248.363 25.4485 248.725 26.172 249.427 26.7676C250.15 27.3418 251.097 27.6289 252.267 27.6289C254.032 27.6289 255.543 27.1505 256.798 26.1934L258.681 29.0967C258.659 29.1181 258.532 29.2038 258.298 29.3525C258.085 29.5014 257.894 29.629 257.724 29.7354C257.553 29.8204 257.319 29.948 257.021 30.1182C256.724 30.2883 256.405 30.4369 256.064 30.5645C255.745 30.6708 255.384 30.7774 254.979 30.8838C254.575 30.9902 254.128 31.0748 253.639 31.1387C253.149 31.2025 252.639 31.2353 252.107 31.2354C249.576 31.2354 247.565 30.501 246.076 29.0332C244.608 27.544 243.874 25.5973 243.874 23.1934C243.874 21.0021 244.576 19.1302 245.98 17.5771C247.385 16.0241 249.257 15.2471 251.597 15.2471ZM85.543 15.2471C87.7554 15.2471 89.4152 15.8429 90.5215 17.0342C91.649 18.2255 92.2129 19.8853 92.2129 22.0127V30.7246H87.9053L87.7773 29.3203C86.7137 30.5542 85.2032 31.1708 83.2461 31.1709C82.6718 31.1709 82.1077 31.0862 81.5547 30.916C81.0016 30.7671 80.4586 30.533 79.9268 30.2139C79.4162 29.8735 79.0017 29.3943 78.6826 28.7773C78.3636 28.1392 78.2041 27.3948 78.2041 26.5439C78.2041 24.842 78.8417 23.512 80.1182 22.5547C81.4159 21.5973 83.0756 21.1191 85.0967 21.1191C86.5646 21.1191 87.4582 21.162 87.7773 21.2471V20.9277C87.7773 20.2044 87.5004 19.6724 86.9473 19.332C86.4154 18.9704 85.7349 18.7891 84.9053 18.7891C83.2884 18.7891 81.8738 19.2045 80.6611 20.0342L78.7783 17.2256C80.6078 15.9067 82.8627 15.2471 85.543 15.2471ZM117.61 15.2471C119.823 15.2471 121.483 15.8428 122.589 17.0342C123.716 18.2255 124.28 19.8853 124.28 22.0127V30.7246H119.972L119.845 29.3203C118.781 30.5541 117.27 31.1708 115.313 31.1709C114.739 31.1709 114.175 31.0861 113.622 30.916C113.069 30.7671 112.526 30.533 111.994 30.2139C111.484 29.8735 111.069 29.3943 110.75 28.7773C110.431 28.1392 110.271 27.3948 110.271 26.5439C110.271 24.842 110.909 23.512 112.186 22.5547C113.483 21.5974 115.143 21.1191 117.164 21.1191C118.632 21.1191 119.526 21.162 119.845 21.2471V20.9277C119.845 20.2044 119.568 19.6724 119.015 19.332C118.483 18.9704 117.802 18.7891 116.973 18.7891C115.356 18.7891 113.941 19.2045 112.729 20.0342L110.846 17.2256C112.675 15.9068 114.93 15.2471 117.61 15.2471ZM185.453 15.2471C187.666 15.2471 189.325 15.8429 190.432 17.0342C191.559 18.2255 192.123 19.8853 192.123 22.0127V30.7246H187.815L187.688 29.3203C186.624 30.5541 185.113 31.1708 183.156 31.1709C182.582 31.1709 182.018 31.0861 181.465 30.916C180.912 30.7671 180.369 30.533 179.837 30.2139C179.326 29.8735 178.912 29.3943 178.593 28.7773C178.274 28.1392 178.114 27.3948 178.114 26.5439C178.114 24.842 178.752 23.512 180.028 22.5547C181.326 21.5973 182.986 21.1191 185.007 21.1191C186.475 21.1191 187.368 21.162 187.688 21.2471V20.9277C187.688 20.2044 187.411 19.6724 186.857 19.332C186.326 18.9704 185.645 18.7891 184.815 18.7891C183.199 18.7891 181.784 19.2045 180.571 20.0342L178.688 17.2256C180.518 15.9067 182.773 15.2471 185.453 15.2471ZM108.253 18.917L100.882 27.1182H108.285V30.7246H95.1055V27.6289L102.445 19.46H95.4248V15.7578H108.253V18.917ZM165.558 17.1943C166.047 16.6412 166.686 16.2049 167.473 15.8857C168.281 15.5666 169.111 15.4072 169.962 15.4072C171.728 15.4072 173.11 15.9283 174.11 16.9707C175.131 18.0131 175.643 19.5127 175.643 21.4697V30.7246H171.079V22.1719C171.079 21.2997 170.855 20.6192 170.408 20.1299C169.983 19.6408 169.388 19.3956 168.622 19.3955C167.665 19.3955 166.92 19.7153 166.388 20.3535C165.856 20.9704 165.59 21.7467 165.59 22.6826V30.7246H160.995V9.43945H165.558V17.1943ZM213.491 30.7246H208.896V15.7578H213.491V30.7246ZM235.312 15.4072C237.206 15.4072 238.663 15.9493 239.685 17.0342C240.706 18.0978 241.216 19.5765 241.216 21.4697V30.7246H236.621V22.2041C236.621 20.332 235.834 19.3956 234.26 19.3955C233.366 19.3955 232.653 19.7043 232.121 20.3213C231.589 20.9382 231.323 21.7254 231.323 22.6826V30.7246H226.888V22.2041C226.888 20.332 226.101 19.3955 224.526 19.3955C223.654 19.3956 222.942 19.7045 222.389 20.3213C221.857 20.9382 221.591 21.7254 221.591 22.6826V30.7246H216.995V15.7578H221.399L221.559 17.417C222.643 16.0769 224.09 15.4073 225.898 15.4072C227.813 15.4072 229.282 16.0986 230.303 17.4814C231.622 16.0987 233.292 15.4073 235.312 15.4072ZM86.1494 23.9912C83.8094 23.9913 82.6396 24.6827 82.6396 26.0654C82.6397 27.2992 83.3841 27.916 84.873 27.916C85.6389 27.916 86.3094 27.6819 86.8838 27.2139C87.4794 26.7458 87.7773 26.1181 87.7773 25.3311V24.1182C87.1817 24.0331 86.6387 23.9912 86.1494 23.9912ZM118.217 23.9912C115.877 23.9912 114.707 24.6826 114.707 26.0654C114.707 27.2992 115.451 27.916 116.94 27.916C117.706 27.916 118.377 27.6819 118.951 27.2139C119.547 26.7459 119.845 26.1181 119.845 25.3311V24.1182C119.249 24.0331 118.706 23.9912 118.217 23.9912ZM186.06 23.9912C183.72 23.9913 182.55 24.6827 182.55 26.0654C182.55 27.2992 183.294 27.916 184.783 27.916C185.549 27.916 186.22 27.6819 186.794 27.2139C187.39 26.7458 187.688 26.1181 187.688 25.3311V24.1182C187.092 24.0331 186.549 23.9912 186.06 23.9912ZM135.533 19.332C134.236 19.3321 133.246 19.7047 132.565 20.4492C131.885 21.1725 131.545 22.1721 131.545 23.4482C131.545 24.5332 131.811 25.4378 132.343 26.1611C132.896 26.8842 133.683 27.2461 134.704 27.2461C136.64 27.246 137.607 26.2247 137.607 24.1826V19.6191C137.097 19.4278 136.405 19.332 135.533 19.332ZM65.0732 13.333C63.2439 13.333 61.7761 13.9708 60.6699 15.2471C59.5637 16.5235 59.0098 18.1086 59.0098 20.002C59.0098 21.8954 59.5637 23.4913 60.6699 24.7891C61.7761 26.0866 63.2439 26.7353 65.0732 26.7354C65.7964 26.7354 66.4452 26.6287 67.0195 26.416L64.7227 23.5127L67.3076 21.3428L69.7324 24.4062C70.6472 23.1936 71.1045 21.7252 71.1045 20.002C71.1045 18.1086 70.5516 16.5235 69.4453 15.2471C68.3603 13.9707 66.9028 13.333 65.0732 13.333ZM251.564 18.8213C250.565 18.8213 249.777 19.1192 249.203 19.7148C248.629 20.3104 248.342 20.9592 248.342 21.6611H254.66C254.66 20.9592 254.383 20.3104 253.83 19.7148C253.298 19.1193 252.543 18.8213 251.564 18.8213ZM213.65 13.5557H208.736V9.43945H213.65V13.5557Z" fill="url(#paint0_linear_6651_7425)"/>
<path d="M21.171 42.3365C9.49749 42.3365 0 32.8446 0 21.171C0 9.49749 9.49749 0 21.171 0C32.8446 0 42.342 9.49749 42.342 21.171C42.342 32.8446 32.8446 42.342 21.171 42.342V42.3365ZM21.171 12.6707C16.4829 12.6707 12.6707 16.4829 12.6707 21.171C12.6707 25.8592 16.4829 29.6714 21.171 29.6714C25.8592 29.6714 29.6714 25.8592 29.6714 21.171C29.6714 16.4829 25.8592 12.6707 21.171 12.6707Z" fill="#E36333"/>
<path d="M41.829 42.3365H21V29.6659H29.1583C36.1547 29.6659 41.829 35.3401 41.829 42.3365Z" fill="url(#paint1_linear_6651_7425)"/>
<defs>
<linearGradient id="paint0_linear_6651_7425" x1="40.3752" y1="34.8635" x2="48.8148" y2="-17.5468" gradientUnits="userSpaceOnUse">
<stop stop-color="#E36333"/>
<stop offset="0.583849" stop-color="#B73B62"/>
<stop offset="1" stop-color="#812775"/>
</linearGradient>
<linearGradient id="paint1_linear_6651_7425" x1="21" y1="36" x2="48.329" y2="36" gradientUnits="userSpaceOnUse">
<stop stop-color="#E36333"/>
<stop offset="1" stop-color="#812775"/>
</linearGradient>
</defs>
</svg>
