<svg width="24" height="24" viewBox="0 0 24 24" fill="none" xmlns="http://www.w3.org/2000/svg">
<path d="M19.5 12C19.5 9.52219 18.2916 7.32281 16.4344 5.95688L15.8503 2.7375C15.7228 2.01937 15.1022 1.5 14.3756 1.5H9.62625C8.89781 1.5 8.27719 2.01937 8.14969 2.73469L7.56563 5.95594C5.70844 7.32281 4.5 9.52219 4.5 12C4.5 14.4778 5.70844 16.6772 7.56563 18.0431L8.14969 21.2616C8.27719 21.9797 8.89781 22.4991 9.62437 22.4991H14.3747C15.1031 22.4991 15.7238 21.9797 15.8513 21.2644L16.4353 18.0431C18.2925 16.6763 19.5009 14.4769 19.5009 12H19.5ZM9.62813 3L14.3747 3.00281L14.7403 5.02125C13.8909 4.68656 12.9666 4.50094 12 4.50094C11.0334 4.50094 10.11 4.68656 9.26062 5.02125L9.62813 3.00094V3ZM6 12C6 8.69156 8.69156 6 12 6C15.3084 6 18 8.69156 18 12C18 15.3084 15.3084 18 12 18C8.69156 18 6 15.3084 6 12ZM14.3719 21L9.62531 20.9972L9.25969 18.9788C10.1091 19.3134 11.0334 19.4991 12 19.4991C12.9666 19.4991 13.89 19.3134 14.7394 18.9788L14.3719 20.9991V21Z" fill="#9F248F"/>
<path d="M12 12.75H15.75C16.1644 12.75 16.5 12.4144 16.5 12C16.5 11.5856 16.1644 11.25 15.75 11.25H12.75V8.25C12.75 7.83562 12.4144 7.5 12 7.5C11.5856 7.5 11.25 7.83562 11.25 8.25V12C11.25 12.4144 11.5856 12.75 12 12.75Z" fill="#9F248F"/>
</svg>
